<svg width="2508" height="648" viewBox="0 0 2508 648" fill="none" xmlns="http://www.w3.org/2000/svg">
<g clip-path="url(#clip0_152_43)" filter="url(#filter0_d_152_43)">
<rect width="2500" height="640" transform="translate(4)" fill="url(#paint0_radial_152_43)"/>
<ellipse cx="613.625" cy="639.5" rx="705.625" ry="648.5" fill="url(#paint1_radial_152_43)"/>
<ellipse cx="1894" cy="639.5" rx="722" ry="242.5" fill="url(#paint2_radial_152_43)" fill-opacity="0.5"/>
<ellipse cx="1532.5" cy="233.5" rx="740.5" ry="406.5" fill="url(#paint3_radial_152_43)"/>
<path fill-rule="evenodd" clip-rule="evenodd" d="M967.146 236.772C967.146 231.918 963.224 227.997 958.371 227.997C953.517 227.997 949.596 231.918 949.596 236.772V245.547H936.434C929.167 245.547 923.271 251.442 923.271 258.709V271.871H1046.12V258.709C1046.12 251.442 1040.22 245.547 1032.96 245.547H1019.79V236.772C1019.79 231.918 1015.87 227.997 1011.02 227.997C1006.17 227.997 1002.25 231.918 1002.25 236.772V245.547H967.146V236.772ZM1046.12 280.646H923.271V352.534C965.207 338.038 1008.54 319.036 1046.12 295.947V280.646ZM1046.12 328.11C1021.1 343.208 993.936 356.453 963.835 368.395H1032.96C1040.22 368.395 1046.12 362.499 1046.12 355.233V328.11ZM940.821 302.583C940.821 300.17 942.795 298.196 945.208 298.196H971.533C973.946 298.196 975.921 300.17 975.921 302.583V328.908C975.921 331.321 973.946 333.295 971.533 333.295H945.208C942.795 333.295 940.821 331.321 940.821 328.908V302.583Z" fill="white"/>
<path fill-rule="evenodd" clip-rule="evenodd" d="M1089.47 309C1089.47 369.556 1041.69 418 983.544 418C955.082 418 929.106 406.395 909.999 387.445C904.805 389.088 899.529 390.708 894.17 392.307C893.899 392.052 893.607 391.796 893.295 391.539C915.442 416.981 947.668 433 983.544 433C1050.33 433 1104.47 377.483 1104.47 309C1104.47 301.702 1103.86 294.552 1102.68 287.6C1102.65 287.787 1102.63 287.885 1102.63 287.885C1098.16 291.618 1093.62 295.257 1089.02 298.806C1089.32 302.16 1089.47 305.561 1089.47 309ZM1082.71 270.568C1086.9 267.261 1090.95 263.89 1094.85 260.455C1076.43 216.098 1033.53 185 983.544 185C916.756 185 862.615 240.517 862.615 309C862.615 329.967 867.69 349.718 876.649 367.033C881.503 365.69 886.419 364.278 891.382 362.797C882.628 346.959 877.615 328.615 877.615 309C877.615 248.444 925.393 200 983.544 200C1028.68 200 1067.57 229.186 1082.71 270.568Z" fill="white"/>
<path d="M1085.28 257.941C1029.1 308.052 951.63 336.844 883.037 357.372C873.883 337.228 871.245 322.053 871.245 305.161C827.174 326.276 762.441 378.283 782.889 400.165C808.773 427.866 904.844 406.511 1013.1 352.765C1094.87 313.223 1193.54 234.139 1173.96 201.124C1163.38 183.293 1114.14 192.936 1054.95 220.824C1065.31 231.068 1077.98 241.05 1085.28 257.941Z" stroke="white" stroke-width="15" stroke-linecap="round"/>
<path d="M1220.65 291C1220.14 291 1219.72 290.837 1219.39 290.51C1219.06 290.183 1218.9 289.763 1218.9 289.25V243.75C1218.9 243.237 1219.06 242.817 1219.39 242.49C1219.72 242.163 1220.14 242 1220.65 242H1240.25C1244.12 242 1247.48 242.607 1250.33 243.82C1253.22 244.987 1255.46 246.76 1257.05 249.14C1258.68 251.52 1259.5 254.53 1259.5 258.17C1259.5 261.763 1258.68 264.727 1257.05 267.06C1255.46 269.393 1253.22 271.12 1250.33 272.24C1247.48 273.36 1244.12 273.92 1240.25 273.92H1231.92V289.25C1231.92 289.763 1231.73 290.183 1231.36 290.51C1231.03 290.837 1230.61 291 1230.1 291H1220.65ZM1231.71 264.26H1239.9C1241.91 264.26 1243.49 263.747 1244.66 262.72C1245.87 261.693 1246.48 260.13 1246.48 258.03C1246.48 256.257 1245.97 254.763 1244.94 253.55C1243.91 252.337 1242.23 251.73 1239.9 251.73H1231.71V264.26ZM1267.18 291C1266.67 291 1266.25 290.837 1265.92 290.51C1265.6 290.183 1265.43 289.763 1265.43 289.25V243.05C1265.43 242.537 1265.6 242.117 1265.92 241.79C1266.25 241.463 1266.67 241.3 1267.18 241.3H1275.44C1275.96 241.3 1276.38 241.463 1276.7 241.79C1277.03 242.117 1277.19 242.537 1277.19 243.05V289.25C1277.19 289.763 1277.03 290.183 1276.7 290.51C1276.38 290.837 1275.96 291 1275.44 291H1267.18ZM1296.38 291.7C1293.86 291.7 1291.6 291.233 1289.59 290.3C1287.63 289.32 1286.07 288.013 1284.9 286.38C1283.74 284.747 1283.15 282.903 1283.15 280.85C1283.15 277.537 1284.51 274.923 1287.21 273.01C1289.92 271.05 1293.51 269.72 1297.99 269.02L1306.74 267.69V266.71C1306.74 265.03 1306.39 263.747 1305.69 262.86C1304.99 261.973 1303.71 261.53 1301.84 261.53C1300.54 261.53 1299.46 261.787 1298.62 262.3C1297.83 262.813 1297.2 263.513 1296.73 264.4C1296.31 265.007 1295.73 265.31 1294.98 265.31H1287.14C1286.63 265.31 1286.23 265.17 1285.95 264.89C1285.67 264.563 1285.56 264.19 1285.6 263.77C1285.6 262.93 1285.91 261.973 1286.51 260.9C1287.17 259.78 1288.15 258.683 1289.45 257.61C1290.76 256.537 1292.44 255.65 1294.49 254.95C1296.55 254.25 1299.02 253.9 1301.91 253.9C1304.95 253.9 1307.54 254.25 1309.68 254.95C1311.83 255.65 1313.56 256.63 1314.86 257.89C1316.22 259.15 1317.22 260.643 1317.87 262.37C1318.53 264.05 1318.85 265.917 1318.85 267.97V289.25C1318.85 289.763 1318.67 290.183 1318.29 290.51C1317.97 290.837 1317.57 291 1317.1 291H1308.98C1308.47 291 1308.05 290.837 1307.72 290.51C1307.4 290.183 1307.23 289.763 1307.23 289.25V286.8C1306.63 287.687 1305.81 288.503 1304.78 289.25C1303.76 289.997 1302.54 290.58 1301.14 291C1299.79 291.467 1298.2 291.7 1296.38 291.7ZM1299.67 283.72C1301.03 283.72 1302.24 283.44 1303.31 282.88C1304.43 282.273 1305.3 281.363 1305.9 280.15C1306.56 278.89 1306.88 277.327 1306.88 275.46V274.48L1300.93 275.53C1298.74 275.903 1297.13 276.487 1296.1 277.28C1295.12 278.027 1294.63 278.913 1294.63 279.94C1294.63 280.733 1294.87 281.41 1295.33 281.97C1295.8 282.53 1296.41 282.973 1297.15 283.3C1297.9 283.58 1298.74 283.72 1299.67 283.72ZM1328.5 291C1327.99 291 1327.57 290.837 1327.24 290.51C1326.92 290.183 1326.75 289.763 1326.75 289.25V256.35C1326.75 255.837 1326.92 255.417 1327.24 255.09C1327.57 254.763 1327.99 254.6 1328.5 254.6H1336.55C1337.07 254.6 1337.49 254.763 1337.81 255.09C1338.14 255.417 1338.3 255.837 1338.3 256.35V259.01C1339.52 257.563 1341.1 256.35 1343.06 255.37C1345.02 254.39 1347.33 253.9 1349.99 253.9C1352.7 253.9 1355.08 254.507 1357.13 255.72C1359.23 256.933 1360.87 258.73 1362.03 261.11C1363.25 263.443 1363.85 266.313 1363.85 269.72V289.25C1363.85 289.763 1363.67 290.183 1363.29 290.51C1362.97 290.837 1362.57 291 1362.1 291H1353.28C1352.82 291 1352.4 290.837 1352.02 290.51C1351.7 290.183 1351.53 289.763 1351.53 289.25V270.14C1351.53 267.947 1351 266.267 1349.92 265.1C1348.9 263.887 1347.36 263.28 1345.3 263.28C1343.39 263.28 1341.85 263.887 1340.68 265.1C1339.56 266.267 1339 267.947 1339 270.14V289.25C1339 289.763 1338.82 290.183 1338.44 290.51C1338.12 290.837 1337.72 291 1337.25 291H1328.5ZM1373.42 291C1372.9 291 1372.48 290.837 1372.16 290.51C1371.83 290.183 1371.67 289.763 1371.67 289.25V256.35C1371.67 255.837 1371.83 255.417 1372.16 255.09C1372.48 254.763 1372.9 254.6 1373.42 254.6H1381.68C1382.14 254.6 1382.54 254.763 1382.87 255.09C1383.24 255.417 1383.43 255.837 1383.43 256.35V289.25C1383.43 289.763 1383.24 290.183 1382.87 290.51C1382.54 290.837 1382.14 291 1381.68 291H1373.42ZM1373.35 249.35C1372.83 249.35 1372.41 249.187 1372.09 248.86C1371.76 248.533 1371.6 248.113 1371.6 247.6V241.37C1371.6 240.857 1371.76 240.437 1372.09 240.11C1372.41 239.737 1372.83 239.55 1373.35 239.55H1381.68C1382.19 239.55 1382.61 239.737 1382.94 240.11C1383.31 240.437 1383.5 240.857 1383.5 241.37V247.6C1383.5 248.113 1383.31 248.533 1382.94 248.86C1382.61 249.187 1382.19 249.35 1381.68 249.35H1373.35ZM1395.56 291C1395.05 291 1394.63 290.837 1394.3 290.51C1393.98 290.183 1393.81 289.763 1393.81 289.25V256.35C1393.81 255.837 1393.98 255.417 1394.3 255.09C1394.63 254.763 1395.05 254.6 1395.56 254.6H1403.61C1404.13 254.6 1404.55 254.763 1404.87 255.09C1405.2 255.417 1405.36 255.837 1405.36 256.35V259.01C1406.58 257.563 1408.16 256.35 1410.12 255.37C1412.08 254.39 1414.39 253.9 1417.05 253.9C1419.76 253.9 1422.14 254.507 1424.19 255.72C1426.29 256.933 1427.93 258.73 1429.09 261.11C1430.31 263.443 1430.91 266.313 1430.91 269.72V289.25C1430.91 289.763 1430.73 290.183 1430.35 290.51C1430.03 290.837 1429.63 291 1429.16 291H1420.34C1419.88 291 1419.46 290.837 1419.08 290.51C1418.76 290.183 1418.59 289.763 1418.59 289.25V270.14C1418.59 267.947 1418.06 266.267 1416.98 265.1C1415.96 263.887 1414.42 263.28 1412.36 263.28C1410.45 263.28 1408.91 263.887 1407.74 265.1C1406.62 266.267 1406.06 267.947 1406.06 270.14V289.25C1406.06 289.763 1405.88 290.183 1405.5 290.51C1405.18 290.837 1404.78 291 1404.31 291H1395.56ZM1456.58 306.4C1452.98 306.4 1450 305.933 1447.62 305C1445.28 304.067 1443.42 302.947 1442.02 301.64C1440.66 300.333 1439.68 299.027 1439.08 297.72C1438.47 296.46 1438.14 295.457 1438.1 294.71C1438.05 294.197 1438.21 293.777 1438.59 293.45C1438.96 293.123 1439.4 292.96 1439.92 292.96H1448.81C1449.23 292.96 1449.58 293.053 1449.86 293.24C1450.18 293.473 1450.44 293.847 1450.63 294.36C1450.86 294.873 1451.16 295.41 1451.54 295.97C1451.96 296.53 1452.52 296.973 1453.22 297.3C1453.96 297.673 1454.97 297.86 1456.23 297.86C1457.63 297.86 1458.79 297.627 1459.73 297.16C1460.66 296.74 1461.36 296.017 1461.83 294.99C1462.29 294.01 1462.53 292.68 1462.53 291V286.31C1461.45 287.477 1460.08 288.433 1458.4 289.18C1456.72 289.88 1454.69 290.23 1452.31 290.23C1449.93 290.23 1447.83 289.88 1446.01 289.18C1444.19 288.48 1442.67 287.43 1441.46 286.03C1440.24 284.63 1439.29 282.927 1438.59 280.92C1437.93 278.913 1437.54 276.603 1437.4 273.99C1437.35 272.777 1437.35 271.563 1437.4 270.35C1437.54 267.83 1437.93 265.567 1438.59 263.56C1439.24 261.553 1440.17 259.827 1441.39 258.38C1442.65 256.933 1444.19 255.837 1446.01 255.09C1447.83 254.297 1449.93 253.9 1452.31 253.9C1454.83 253.9 1456.97 254.39 1458.75 255.37C1460.57 256.303 1462.06 257.493 1463.23 258.94V256.35C1463.23 255.883 1463.39 255.487 1463.72 255.16C1464.04 254.787 1464.46 254.6 1464.98 254.6H1473.03C1473.54 254.6 1473.96 254.787 1474.29 255.16C1474.66 255.487 1474.85 255.883 1474.85 256.35V290.02C1474.85 293.567 1474.12 296.553 1472.68 298.98C1471.23 301.407 1469.15 303.25 1466.45 304.51C1463.74 305.77 1460.45 306.4 1456.58 306.4ZM1456.09 281.13C1457.58 281.13 1458.79 280.803 1459.73 280.15C1460.66 279.497 1461.34 278.657 1461.76 277.63C1462.22 276.603 1462.48 275.507 1462.53 274.34C1462.57 273.827 1462.6 273.103 1462.6 272.17C1462.6 271.237 1462.57 270.537 1462.53 270.07C1462.48 268.857 1462.22 267.737 1461.76 266.71C1461.34 265.683 1460.66 264.867 1459.73 264.26C1458.79 263.607 1457.58 263.28 1456.09 263.28C1454.55 263.28 1453.31 263.607 1452.38 264.26C1451.49 264.913 1450.84 265.8 1450.42 266.92C1450.04 268.04 1449.81 269.277 1449.72 270.63C1449.67 271.657 1449.67 272.707 1449.72 273.78C1449.81 275.133 1450.04 276.37 1450.42 277.49C1450.84 278.61 1451.49 279.497 1452.38 280.15C1453.31 280.803 1454.55 281.13 1456.09 281.13ZM1517.03 291.7C1512.37 291.7 1508.49 291.047 1505.41 289.74C1502.33 288.387 1500 286.637 1498.41 284.49C1496.83 282.343 1495.99 280.057 1495.89 277.63C1495.89 277.257 1496.03 276.93 1496.31 276.65C1496.64 276.323 1497.01 276.16 1497.43 276.16H1506.25C1506.91 276.16 1507.4 276.277 1507.72 276.51C1508.1 276.743 1508.42 277.047 1508.7 277.42C1509.08 278.12 1509.59 278.797 1510.24 279.45C1510.94 280.103 1511.83 280.64 1512.9 281.06C1514.02 281.433 1515.4 281.62 1517.03 281.62C1519.74 281.62 1521.77 281.2 1523.12 280.36C1524.52 279.52 1525.22 278.377 1525.22 276.93C1525.22 275.903 1524.85 275.063 1524.1 274.41C1523.36 273.71 1522.14 273.103 1520.46 272.59C1518.83 272.03 1516.64 271.47 1513.88 270.91C1510.34 270.163 1507.3 269.207 1504.78 268.04C1502.31 266.827 1500.42 265.263 1499.11 263.35C1497.81 261.39 1497.15 258.963 1497.15 256.07C1497.15 253.223 1497.95 250.68 1499.53 248.44C1501.17 246.2 1503.43 244.45 1506.32 243.19C1509.22 241.93 1512.65 241.3 1516.61 241.3C1519.83 241.3 1522.66 241.72 1525.08 242.56C1527.56 243.4 1529.63 244.52 1531.31 245.92C1532.99 247.32 1534.25 248.813 1535.09 250.4C1535.98 251.94 1536.45 253.457 1536.49 254.95C1536.49 255.323 1536.35 255.673 1536.07 256C1535.79 256.28 1535.44 256.42 1535.02 256.42H1525.78C1525.27 256.42 1524.83 256.327 1524.45 256.14C1524.08 255.953 1523.75 255.65 1523.47 255.23C1523.19 254.203 1522.45 253.317 1521.23 252.57C1520.07 251.777 1518.53 251.38 1516.61 251.38C1514.56 251.38 1512.95 251.753 1511.78 252.5C1510.66 253.2 1510.1 254.297 1510.1 255.79C1510.1 256.723 1510.41 257.54 1511.01 258.24C1511.67 258.94 1512.72 259.547 1514.16 260.06C1515.66 260.573 1517.69 261.11 1520.25 261.67C1524.5 262.463 1527.93 263.467 1530.54 264.68C1533.16 265.847 1535.07 267.387 1536.28 269.3C1537.5 271.167 1538.1 273.523 1538.1 276.37C1538.1 279.543 1537.19 282.297 1535.37 284.63C1533.6 286.917 1531.13 288.667 1527.95 289.88C1524.78 291.093 1521.14 291.7 1517.03 291.7ZM1557.71 291.7C1555.05 291.7 1552.67 291.093 1550.57 289.88C1548.52 288.667 1546.91 286.893 1545.74 284.56C1544.57 282.18 1543.99 279.287 1543.99 275.88V256.35C1543.99 255.837 1544.15 255.417 1544.48 255.09C1544.81 254.763 1545.23 254.6 1545.74 254.6H1554.49C1555 254.6 1555.42 254.763 1555.75 255.09C1556.08 255.417 1556.24 255.837 1556.24 256.35V275.46C1556.24 280.033 1558.29 282.32 1562.4 282.32C1564.31 282.32 1565.83 281.737 1566.95 280.57C1568.12 279.357 1568.7 277.653 1568.7 275.46V256.35C1568.7 255.837 1568.86 255.417 1569.19 255.09C1569.52 254.763 1569.94 254.6 1570.45 254.6H1579.2C1579.71 254.6 1580.13 254.763 1580.46 255.09C1580.79 255.417 1580.95 255.837 1580.95 256.35V289.25C1580.95 289.763 1580.79 290.183 1580.46 290.51C1580.13 290.837 1579.71 291 1579.2 291H1571.08C1570.61 291 1570.19 290.837 1569.82 290.51C1569.49 290.183 1569.33 289.763 1569.33 289.25V286.59C1568.12 288.27 1566.53 289.553 1564.57 290.44C1562.66 291.28 1560.37 291.7 1557.71 291.7ZM1605.91 291.7C1602.46 291.7 1599.4 291.07 1596.74 289.81C1594.08 288.55 1591.96 286.73 1590.37 284.35C1588.83 281.923 1587.99 279.03 1587.85 275.67C1587.81 274.923 1587.78 273.99 1587.78 272.87C1587.78 271.703 1587.81 270.747 1587.85 270C1587.99 266.593 1588.83 263.7 1590.37 261.32C1591.91 258.893 1594.01 257.05 1596.67 255.79C1599.38 254.53 1602.46 253.9 1605.91 253.9C1609.13 253.9 1611.89 254.367 1614.17 255.3C1616.46 256.187 1618.33 257.307 1619.77 258.66C1621.22 260.013 1622.29 261.413 1622.99 262.86C1623.74 264.26 1624.14 265.497 1624.18 266.57C1624.23 267.037 1624.07 267.457 1623.69 267.83C1623.32 268.157 1622.9 268.32 1622.43 268.32H1613.54C1613.03 268.32 1612.63 268.203 1612.35 267.97C1612.07 267.737 1611.82 267.387 1611.58 266.92C1611.02 265.473 1610.3 264.447 1609.41 263.84C1608.57 263.233 1607.48 262.93 1606.12 262.93C1604.26 262.93 1602.81 263.537 1601.78 264.75C1600.8 265.963 1600.27 267.83 1600.17 270.35C1600.13 272.217 1600.13 273.873 1600.17 275.32C1600.27 277.887 1600.8 279.753 1601.78 280.92C1602.81 282.087 1604.26 282.67 1606.12 282.67C1607.57 282.67 1608.71 282.367 1609.55 281.76C1610.39 281.153 1611.07 280.127 1611.58 278.68C1611.82 278.213 1612.07 277.863 1612.35 277.63C1612.63 277.397 1613.03 277.28 1613.54 277.28H1622.43C1622.9 277.28 1623.32 277.467 1623.69 277.84C1624.07 278.167 1624.23 278.563 1624.18 279.03C1624.14 279.823 1623.9 280.757 1623.48 281.83C1623.06 282.857 1622.41 283.953 1621.52 285.12C1620.64 286.287 1619.47 287.383 1618.02 288.41C1616.62 289.39 1614.92 290.183 1612.91 290.79C1610.91 291.397 1608.57 291.7 1605.91 291.7ZM1632.22 291C1631.71 291 1631.29 290.837 1630.96 290.51C1630.64 290.183 1630.47 289.763 1630.47 289.25V243.05C1630.47 242.537 1630.64 242.117 1630.96 241.79C1631.29 241.463 1631.71 241.3 1632.22 241.3H1640.34C1640.81 241.3 1641.21 241.463 1641.53 241.79C1641.91 242.117 1642.09 242.537 1642.09 243.05V266.5L1651.82 255.79C1652.1 255.463 1652.41 255.183 1652.73 254.95C1653.06 254.717 1653.53 254.6 1654.13 254.6H1663.51C1663.93 254.6 1664.28 254.763 1664.56 255.09C1664.89 255.37 1665.05 255.72 1665.05 256.14C1665.05 256.327 1665.01 256.537 1664.91 256.77C1664.82 257.003 1664.68 257.19 1664.49 257.33L1651.89 270.91L1666.24 288.34C1666.62 288.713 1666.8 289.087 1666.8 289.46C1666.8 289.88 1666.64 290.253 1666.31 290.58C1666.03 290.86 1665.66 291 1665.19 291H1655.6C1654.9 291 1654.39 290.883 1654.06 290.65C1653.74 290.37 1653.43 290.09 1653.15 289.81L1642.09 276.51V289.25C1642.09 289.763 1641.91 290.183 1641.53 290.51C1641.21 290.837 1640.81 291 1640.34 291H1632.22ZM1685.58 291.7C1682.55 291.7 1679.96 291.373 1677.81 290.72C1675.71 290.02 1673.98 289.18 1672.63 288.2C1671.32 287.22 1670.34 286.217 1669.69 285.19C1669.04 284.117 1668.69 283.207 1668.64 282.46C1668.59 281.947 1668.76 281.527 1669.13 281.2C1669.5 280.827 1669.9 280.64 1670.32 280.64H1678.3C1678.44 280.64 1678.56 280.663 1678.65 280.71C1678.74 280.757 1678.88 280.85 1679.07 280.99C1679.68 281.317 1680.28 281.737 1680.89 282.25C1681.5 282.717 1682.2 283.137 1682.99 283.51C1683.78 283.883 1684.74 284.07 1685.86 284.07C1687.17 284.07 1688.26 283.813 1689.15 283.3C1690.04 282.787 1690.48 282.017 1690.48 280.99C1690.48 280.243 1690.27 279.637 1689.85 279.17C1689.43 278.657 1688.57 278.167 1687.26 277.7C1686 277.233 1684.09 276.767 1681.52 276.3C1679.09 275.74 1676.97 275.017 1675.15 274.13C1673.33 273.197 1671.93 272.007 1670.95 270.56C1669.97 269.067 1669.48 267.27 1669.48 265.17C1669.48 263.303 1670.09 261.507 1671.3 259.78C1672.51 258.053 1674.29 256.653 1676.62 255.58C1678.95 254.46 1681.82 253.9 1685.23 253.9C1687.94 253.9 1690.27 254.227 1692.23 254.88C1694.24 255.487 1695.92 256.28 1697.27 257.26C1698.67 258.24 1699.72 259.243 1700.42 260.27C1701.12 261.297 1701.49 262.23 1701.54 263.07C1701.59 263.537 1701.45 263.957 1701.12 264.33C1700.79 264.657 1700.42 264.82 1700 264.82H1692.72C1692.53 264.82 1692.35 264.797 1692.16 264.75C1691.97 264.657 1691.81 264.563 1691.67 264.47C1691.11 264.19 1690.55 263.817 1689.99 263.35C1689.43 262.883 1688.78 262.463 1688.03 262.09C1687.28 261.717 1686.35 261.53 1685.23 261.53C1683.97 261.53 1682.99 261.81 1682.29 262.37C1681.59 262.93 1681.24 263.653 1681.24 264.54C1681.24 265.147 1681.43 265.707 1681.8 266.22C1682.22 266.733 1683.04 267.2 1684.25 267.62C1685.51 268.04 1687.45 268.507 1690.06 269.02C1693.28 269.533 1695.85 270.373 1697.76 271.54C1699.67 272.66 1701.03 273.99 1701.82 275.53C1702.61 277.023 1703.01 278.61 1703.01 280.29C1703.01 282.53 1702.33 284.513 1700.98 286.24C1699.67 287.967 1697.71 289.32 1695.1 290.3C1692.49 291.233 1689.31 291.7 1685.58 291.7ZM1710.69 291C1710.18 291 1709.76 290.837 1709.43 290.51C1709.11 290.183 1708.94 289.763 1708.94 289.25V280.36C1708.94 279.893 1709.11 279.497 1709.43 279.17C1709.76 278.797 1710.18 278.61 1710.69 278.61H1719.51C1720.03 278.61 1720.45 278.797 1720.77 279.17C1721.15 279.497 1721.33 279.893 1721.33 280.36V289.25C1721.33 289.763 1721.15 290.183 1720.77 290.51C1720.45 290.837 1720.03 291 1719.51 291H1710.69Z" fill="white"/>
<path d="M1226.3 383C1225.78 383 1225.36 382.86 1225.04 382.58C1224.76 382.3 1224.56 381.9 1224.44 381.38L1216.7 342.86C1216.66 342.7 1216.64 342.56 1216.64 342.44C1216.64 342.32 1216.64 342.24 1216.64 342.2C1216.64 341.88 1216.76 341.6 1217 341.36C1217.24 341.12 1217.52 341 1217.84 341H1220.96C1221.8 341 1222.28 341.34 1222.4 342.02L1228.52 372.98L1235 351.74C1235.12 351.38 1235.32 351.06 1235.6 350.78C1235.92 350.46 1236.36 350.3 1236.92 350.3H1239.14C1239.74 350.3 1240.18 350.46 1240.46 350.78C1240.74 351.06 1240.92 351.38 1241 351.74L1247.54 372.98L1253.6 342.02C1253.72 341.34 1254.22 341 1255.1 341H1258.22C1258.54 341 1258.82 341.12 1259.06 341.36C1259.3 341.6 1259.42 341.88 1259.42 342.2C1259.42 342.24 1259.4 342.32 1259.36 342.44C1259.36 342.56 1259.36 342.7 1259.36 342.86L1251.62 381.38C1251.5 381.9 1251.28 382.3 1250.96 382.58C1250.68 382.86 1250.28 383 1249.76 383H1247.42C1246.86 383 1246.42 382.86 1246.1 382.58C1245.78 382.3 1245.56 381.94 1245.44 381.5L1238 358.64L1230.62 381.5C1230.46 381.94 1230.22 382.3 1229.9 382.58C1229.62 382.86 1229.2 383 1228.64 383H1226.3ZM1277.62 383.6C1273.5 383.6 1270.22 382.34 1267.78 379.82C1265.34 377.26 1264 373.78 1263.76 369.38C1263.72 368.86 1263.7 368.2 1263.7 367.4C1263.7 366.56 1263.72 365.88 1263.76 365.36C1263.92 362.52 1264.58 360.04 1265.74 357.92C1266.9 355.76 1268.48 354.1 1270.48 352.94C1272.52 351.78 1274.9 351.2 1277.62 351.2C1280.66 351.2 1283.2 351.84 1285.24 353.12C1287.32 354.4 1288.9 356.22 1289.98 358.58C1291.06 360.94 1291.6 363.7 1291.6 366.86V367.88C1291.6 368.32 1291.46 368.66 1291.18 368.9C1290.94 369.14 1290.62 369.26 1290.22 369.26H1269.46C1269.46 369.3 1269.46 369.38 1269.46 369.5C1269.46 369.62 1269.46 369.72 1269.46 369.8C1269.54 371.44 1269.9 372.98 1270.54 374.42C1271.18 375.82 1272.1 376.96 1273.3 377.84C1274.5 378.72 1275.94 379.16 1277.62 379.16C1279.06 379.16 1280.26 378.94 1281.22 378.5C1282.18 378.06 1282.96 377.58 1283.56 377.06C1284.16 376.5 1284.56 376.08 1284.76 375.8C1285.12 375.28 1285.4 374.98 1285.6 374.9C1285.8 374.78 1286.12 374.72 1286.56 374.72H1289.44C1289.84 374.72 1290.16 374.84 1290.4 375.08C1290.68 375.28 1290.8 375.58 1290.76 375.98C1290.72 376.58 1290.4 377.32 1289.8 378.2C1289.2 379.04 1288.34 379.88 1287.22 380.72C1286.1 381.56 1284.74 382.26 1283.14 382.82C1281.54 383.34 1279.7 383.6 1277.62 383.6ZM1269.46 365.12H1285.9V364.94C1285.9 363.14 1285.56 361.54 1284.88 360.14C1284.24 358.74 1283.3 357.64 1282.06 356.84C1280.82 356 1279.34 355.58 1277.62 355.58C1275.9 355.58 1274.42 356 1273.18 356.84C1271.98 357.64 1271.06 358.74 1270.42 360.14C1269.78 361.54 1269.46 363.14 1269.46 364.94V365.12ZM1316.87 383C1316.47 383 1316.13 382.88 1315.85 382.64C1315.61 382.36 1315.49 382.02 1315.49 381.62V356.6H1310.39C1309.99 356.6 1309.65 356.48 1309.37 356.24C1309.13 355.96 1309.01 355.62 1309.01 355.22V353.18C1309.01 352.78 1309.13 352.46 1309.37 352.22C1309.65 351.94 1309.99 351.8 1310.39 351.8H1315.49V348.8C1315.49 346.76 1315.83 344.98 1316.51 343.46C1317.19 341.9 1318.27 340.7 1319.75 339.86C1321.27 339.02 1323.29 338.6 1325.81 338.6H1335.05C1335.45 338.6 1335.77 338.74 1336.01 339.02C1336.29 339.26 1336.43 339.58 1336.43 339.98V342.02C1336.43 342.42 1336.29 342.76 1336.01 343.04C1335.77 343.28 1335.45 343.4 1335.05 343.4H1325.93C1324.05 343.4 1322.77 343.9 1322.09 344.9C1321.41 345.86 1321.07 347.26 1321.07 349.1V351.8H1335.05C1335.45 351.8 1335.77 351.94 1336.01 352.22C1336.29 352.46 1336.43 352.78 1336.43 353.18V381.62C1336.43 382.02 1336.29 382.36 1336.01 382.64C1335.77 382.88 1335.45 383 1335.05 383H1332.29C1331.85 383 1331.51 382.88 1331.27 382.64C1331.03 382.36 1330.91 382.02 1330.91 381.62V356.6H1321.07V381.62C1321.07 382.02 1320.93 382.36 1320.65 382.64C1320.41 382.88 1320.09 383 1319.69 383H1316.87ZM1343.86 383C1343.54 383 1343.24 382.88 1342.96 382.64C1342.72 382.4 1342.6 382.1 1342.6 381.74C1342.6 381.62 1342.62 381.48 1342.66 381.32C1342.74 381.12 1342.86 380.9 1343.02 380.66L1353.46 367.04L1343.68 354.14C1343.52 353.9 1343.4 353.7 1343.32 353.54C1343.28 353.38 1343.26 353.22 1343.26 353.06C1343.26 352.7 1343.38 352.4 1343.62 352.16C1343.86 351.92 1344.16 351.8 1344.52 351.8H1347.58C1348.02 351.8 1348.34 351.92 1348.54 352.16C1348.78 352.36 1348.98 352.56 1349.14 352.76L1357.12 363.14L1365.1 352.82C1365.26 352.62 1365.44 352.4 1365.64 352.16C1365.88 351.92 1366.22 351.8 1366.66 351.8H1369.6C1369.96 351.8 1370.26 351.92 1370.5 352.16C1370.74 352.4 1370.86 352.7 1370.86 353.06C1370.86 353.22 1370.82 353.38 1370.74 353.54C1370.7 353.7 1370.6 353.9 1370.44 354.14L1360.54 367.16L1370.98 380.66C1371.14 380.9 1371.24 381.1 1371.28 381.26C1371.36 381.42 1371.4 381.58 1371.4 381.74C1371.4 382.1 1371.28 382.4 1371.04 382.64C1370.8 382.88 1370.5 383 1370.14 383H1366.96C1366.56 383 1366.24 382.9 1366 382.7C1365.76 382.5 1365.56 382.3 1365.4 382.1L1356.94 371.12L1348.48 382.1C1348.32 382.26 1348.12 382.46 1347.88 382.7C1347.68 382.9 1347.36 383 1346.92 383H1343.86ZM1389.24 383.6C1385.12 383.6 1381.84 382.34 1379.4 379.82C1376.96 377.26 1375.62 373.78 1375.38 369.38C1375.34 368.86 1375.32 368.2 1375.32 367.4C1375.32 366.56 1375.34 365.88 1375.38 365.36C1375.54 362.52 1376.2 360.04 1377.36 357.92C1378.52 355.76 1380.1 354.1 1382.1 352.94C1384.14 351.78 1386.52 351.2 1389.24 351.2C1392.28 351.2 1394.82 351.84 1396.86 353.12C1398.94 354.4 1400.52 356.22 1401.6 358.58C1402.68 360.94 1403.22 363.7 1403.22 366.86V367.88C1403.22 368.32 1403.08 368.66 1402.8 368.9C1402.56 369.14 1402.24 369.26 1401.84 369.26H1381.08C1381.08 369.3 1381.08 369.38 1381.08 369.5C1381.08 369.62 1381.08 369.72 1381.08 369.8C1381.16 371.44 1381.52 372.98 1382.16 374.42C1382.8 375.82 1383.72 376.96 1384.92 377.84C1386.12 378.72 1387.56 379.16 1389.24 379.16C1390.68 379.16 1391.88 378.94 1392.84 378.5C1393.8 378.06 1394.58 377.58 1395.18 377.06C1395.78 376.5 1396.18 376.08 1396.38 375.8C1396.74 375.28 1397.02 374.98 1397.22 374.9C1397.42 374.78 1397.74 374.72 1398.18 374.72H1401.06C1401.46 374.72 1401.78 374.84 1402.02 375.08C1402.3 375.28 1402.42 375.58 1402.38 375.98C1402.34 376.58 1402.02 377.32 1401.42 378.2C1400.82 379.04 1399.96 379.88 1398.84 380.72C1397.72 381.56 1396.36 382.26 1394.76 382.82C1393.16 383.34 1391.32 383.6 1389.24 383.6ZM1381.08 365.12H1397.52V364.94C1397.52 363.14 1397.18 361.54 1396.5 360.14C1395.86 358.74 1394.92 357.64 1393.68 356.84C1392.44 356 1390.96 355.58 1389.24 355.58C1387.52 355.58 1386.04 356 1384.8 356.84C1383.6 357.64 1382.68 358.74 1382.04 360.14C1381.4 361.54 1381.08 363.14 1381.08 364.94V365.12ZM1421.79 383.6C1419.59 383.6 1417.69 383.22 1416.09 382.46C1414.49 381.66 1413.17 380.6 1412.13 379.28C1411.13 377.92 1410.37 376.38 1409.85 374.66C1409.37 372.94 1409.09 371.12 1409.01 369.2C1408.97 368.56 1408.95 367.96 1408.95 367.4C1408.95 366.84 1408.97 366.24 1409.01 365.6C1409.09 363.72 1409.37 361.92 1409.85 360.2C1410.37 358.48 1411.13 356.94 1412.13 355.58C1413.17 354.22 1414.49 353.16 1416.09 352.4C1417.69 351.6 1419.59 351.2 1421.79 351.2C1424.15 351.2 1426.11 351.62 1427.67 352.46C1429.23 353.3 1430.51 354.34 1431.51 355.58V341.78C1431.51 341.38 1431.63 341.06 1431.87 340.82C1432.15 340.54 1432.49 340.4 1432.89 340.4H1435.77C1436.17 340.4 1436.49 340.54 1436.73 340.82C1437.01 341.06 1437.15 341.38 1437.15 341.78V381.62C1437.15 382.02 1437.01 382.36 1436.73 382.64C1436.49 382.88 1436.17 383 1435.77 383H1433.07C1432.63 383 1432.29 382.88 1432.05 382.64C1431.81 382.36 1431.69 382.02 1431.69 381.62V379.1C1430.69 380.38 1429.39 381.46 1427.79 382.34C1426.19 383.18 1424.19 383.6 1421.79 383.6ZM1423.05 378.74C1425.05 378.74 1426.65 378.28 1427.85 377.36C1429.05 376.44 1429.95 375.28 1430.55 373.88C1431.15 372.44 1431.47 370.98 1431.51 369.5C1431.55 368.86 1431.57 368.1 1431.57 367.22C1431.57 366.3 1431.55 365.52 1431.51 364.88C1431.47 363.48 1431.13 362.1 1430.49 360.74C1429.89 359.38 1428.97 358.26 1427.73 357.38C1426.53 356.5 1424.97 356.06 1423.05 356.06C1421.01 356.06 1419.39 356.52 1418.19 357.44C1416.99 358.32 1416.13 359.5 1415.61 360.98C1415.09 362.42 1414.79 363.98 1414.71 365.66C1414.67 366.82 1414.67 367.98 1414.71 369.14C1414.79 370.82 1415.09 372.4 1415.61 373.88C1416.13 375.32 1416.99 376.5 1418.19 377.42C1419.39 378.3 1421.01 378.74 1423.05 378.74ZM1462.16 383C1461.76 383 1461.42 382.88 1461.14 382.64C1460.9 382.36 1460.78 382.02 1460.78 381.62V353.18C1460.78 352.78 1460.9 352.46 1461.14 352.22C1461.42 351.94 1461.76 351.8 1462.16 351.8H1465.04C1465.44 351.8 1465.76 351.94 1466 352.22C1466.24 352.46 1466.36 352.78 1466.36 353.18V381.62C1466.36 382.02 1466.24 382.36 1466 382.64C1465.76 382.88 1465.44 383 1465.04 383H1462.16ZM1461.68 345.98C1461.28 345.98 1460.94 345.86 1460.66 345.62C1460.42 345.34 1460.3 345 1460.3 344.6V341.36C1460.3 340.96 1460.42 340.64 1460.66 340.4C1460.94 340.12 1461.28 339.98 1461.68 339.98H1465.46C1465.86 339.98 1466.18 340.12 1466.42 340.4C1466.7 340.64 1466.84 340.96 1466.84 341.36V344.6C1466.84 345 1466.7 345.34 1466.42 345.62C1466.18 345.86 1465.86 345.98 1465.46 345.98H1461.68ZM1487.5 383C1485.26 383 1483.44 382.58 1482.04 381.74C1480.64 380.86 1479.62 379.64 1478.98 378.08C1478.34 376.48 1478.02 374.6 1478.02 372.44V356.6H1473.34C1472.94 356.6 1472.6 356.48 1472.32 356.24C1472.08 355.96 1471.96 355.62 1471.96 355.22V353.18C1471.96 352.78 1472.08 352.46 1472.32 352.22C1472.6 351.94 1472.94 351.8 1473.34 351.8H1478.02V341.78C1478.02 341.38 1478.14 341.06 1478.38 340.82C1478.65 340.54 1479 340.4 1479.4 340.4H1482.22C1482.62 340.4 1482.94 340.54 1483.18 340.82C1483.46 341.06 1483.6 341.38 1483.6 341.78V351.8H1491.04C1491.44 351.8 1491.76 351.94 1492 352.22C1492.28 352.46 1492.42 352.78 1492.42 353.18V355.22C1492.42 355.62 1492.28 355.96 1492 356.24C1491.76 356.48 1491.44 356.6 1491.04 356.6H1483.6V372.02C1483.6 373.9 1483.92 375.38 1484.56 376.46C1485.2 377.54 1486.34 378.08 1487.98 378.08H1491.64C1492.04 378.08 1492.36 378.22 1492.6 378.5C1492.88 378.74 1493.02 379.06 1493.02 379.46V381.62C1493.02 382.02 1492.88 382.36 1492.6 382.64C1492.36 382.88 1492.04 383 1491.64 383H1487.5Z" fill="white"/>
</g>
<defs>
<filter id="filter0_d_152_43" x="0" y="0" width="2508" height="648" filterUnits="userSpaceOnUse" color-interpolation-filters="sRGB">
<feFlood flood-opacity="0" result="BackgroundImageFix"/>
<feColorMatrix in="SourceAlpha" type="matrix" values="0 0 0 0 0 0 0 0 0 0 0 0 0 0 0 0 0 0 127 0" result="hardAlpha"/>
<feOffset dy="4"/>
<feGaussianBlur stdDeviation="2"/>
<feComposite in2="hardAlpha" operator="out"/>
<feColorMatrix type="matrix" values="0 0 0 0 0 0 0 0 0 0 0 0 0 0 0 0 0 0 0.25 0"/>
<feBlend mode="normal" in2="BackgroundImageFix" result="effect1_dropShadow_152_43"/>
<feBlend mode="normal" in="SourceGraphic" in2="effect1_dropShadow_152_43" result="shape"/>
</filter>
<radialGradient id="paint0_radial_152_43" cx="0" cy="0" r="1" gradientUnits="userSpaceOnUse" gradientTransform="translate(-354.492 -172) rotate(17.0476) scale(1678.23 1225.3)">
<stop/>
<stop offset="1" stop-color="#7253DE"/>
</radialGradient>
<radialGradient id="paint1_radial_152_43" cx="0" cy="0" r="1" gradientUnits="userSpaceOnUse" gradientTransform="translate(616.602 636.787) rotate(36.3834) scale(621.107 696.477)">
<stop stop-color="#7253DE"/>
<stop offset="1" stop-color="#7253DE" stop-opacity="0"/>
</radialGradient>
<radialGradient id="paint2_radial_152_43" cx="0" cy="0" r="1" gradientUnits="userSpaceOnUse" gradientTransform="translate(1896.18 639.5) rotate(90.5154) scale(242.51 721.978)">
<stop stop-color="#F5F3FF"/>
<stop offset="1" stop-color="#F5F3FF" stop-opacity="0"/>
</radialGradient>
<radialGradient id="paint3_radial_152_43" cx="0" cy="0" r="1" gradientUnits="userSpaceOnUse" gradientTransform="translate(1532.5 233.5) rotate(90) scale(406.5 740.5)">
<stop stop-color="#7E22B5"/>
<stop offset="1" stop-color="#7E22B5" stop-opacity="0"/>
</radialGradient>
<clipPath id="clip0_152_43">
<rect width="2500" height="640" fill="white" transform="translate(4)"/>
</clipPath>
</defs>
</svg>
