<svg width="3010" height="373" viewBox="0 0 3010 373" fill="none" xmlns="http://www.w3.org/2000/svg">
<g clip-path="url(#clip0_208_710)">
<rect width="3010" height="373" fill="url(#paint0_radial_208_710)"/>
<ellipse cx="2006.5" cy="-0.5" rx="1472.5" ry="406.5" fill="url(#paint1_radial_208_710)"/>
<path fill-rule="evenodd" clip-rule="evenodd" d="M1219.15 113.772C1219.15 108.918 1215.22 104.997 1210.37 104.997C1205.52 104.997 1201.6 108.918 1201.6 113.772V122.547H1188.43C1181.17 122.547 1175.27 128.442 1175.27 135.709V148.871H1298.12V135.709C1298.12 128.442 1292.22 122.547 1284.96 122.547H1271.79V113.772C1271.79 108.918 1267.87 104.997 1263.02 104.997C1258.17 104.997 1254.25 108.918 1254.25 113.772V122.547H1219.15V113.772ZM1298.12 157.646H1175.27V229.534C1217.21 215.038 1260.54 196.036 1298.12 172.947V157.646ZM1298.12 205.11C1273.1 220.208 1245.94 233.453 1215.83 245.395H1284.96C1292.22 245.395 1298.12 239.499 1298.12 232.233V205.11ZM1192.82 179.583C1192.82 177.17 1194.8 175.196 1197.21 175.196H1223.53C1225.95 175.196 1227.92 177.17 1227.92 179.583V205.908C1227.92 208.321 1225.95 210.295 1223.53 210.295H1197.21C1194.8 210.295 1192.82 208.321 1192.82 205.908V179.583Z" fill="white"/>
<path fill-rule="evenodd" clip-rule="evenodd" d="M1341.47 186C1341.47 246.556 1293.69 295 1235.54 295C1207.08 295 1181.11 283.395 1162 264.445C1156.8 266.088 1151.53 267.708 1146.17 269.307C1145.9 269.052 1145.61 268.796 1145.3 268.539C1167.44 293.981 1199.67 310 1235.54 310C1302.33 310 1356.47 254.483 1356.47 186C1356.47 178.702 1355.86 171.552 1354.68 164.6C1354.65 164.787 1354.63 164.885 1354.63 164.885C1350.16 168.618 1345.62 172.257 1341.02 175.806C1341.32 179.16 1341.47 182.561 1341.47 186ZM1334.71 147.568C1338.9 144.261 1342.95 140.89 1346.85 137.455C1328.43 93.0977 1285.53 62 1235.54 62C1168.76 62 1114.61 117.517 1114.61 186C1114.61 206.967 1119.69 226.718 1128.65 244.033C1133.5 242.69 1138.42 241.278 1143.38 239.797C1134.63 223.959 1129.61 205.615 1129.61 186C1129.61 125.444 1177.39 77 1235.54 77C1280.68 77 1319.57 106.186 1334.71 147.568Z" fill="white"/>
<path d="M1337.28 134.941C1281.1 185.052 1203.63 213.844 1135.04 234.372C1125.88 214.228 1123.25 199.053 1123.25 182.161C1079.17 203.276 1014.44 255.283 1034.89 277.165C1060.77 304.866 1156.84 283.511 1265.1 229.765C1346.87 190.223 1445.54 111.139 1425.96 78.124C1415.38 60.293 1366.14 69.9361 1306.95 97.8242C1317.31 108.068 1329.98 118.05 1337.28 134.941Z" stroke="white" stroke-width="15" stroke-linecap="round"/>
<path d="M1472.65 168C1472.14 168 1471.72 167.837 1471.39 167.51C1471.06 167.183 1470.9 166.763 1470.9 166.25V120.75C1470.9 120.237 1471.06 119.817 1471.39 119.49C1471.72 119.163 1472.14 119 1472.65 119H1492.25C1496.12 119 1499.48 119.607 1502.33 120.82C1505.22 121.987 1507.46 123.76 1509.05 126.14C1510.68 128.52 1511.5 131.53 1511.5 135.17C1511.5 138.763 1510.68 141.727 1509.05 144.06C1507.46 146.393 1505.22 148.12 1502.33 149.24C1499.48 150.36 1496.12 150.92 1492.25 150.92H1483.92V166.25C1483.92 166.763 1483.73 167.183 1483.36 167.51C1483.03 167.837 1482.61 168 1482.1 168H1472.65ZM1483.71 141.26H1491.9C1493.91 141.26 1495.49 140.747 1496.66 139.72C1497.87 138.693 1498.48 137.13 1498.48 135.03C1498.48 133.257 1497.97 131.763 1496.94 130.55C1495.91 129.337 1494.23 128.73 1491.9 128.73H1483.71V141.26ZM1519.18 168C1518.67 168 1518.25 167.837 1517.92 167.51C1517.6 167.183 1517.43 166.763 1517.43 166.25V120.05C1517.43 119.537 1517.6 119.117 1517.92 118.79C1518.25 118.463 1518.67 118.3 1519.18 118.3H1527.44C1527.96 118.3 1528.38 118.463 1528.7 118.79C1529.03 119.117 1529.19 119.537 1529.19 120.05V166.25C1529.19 166.763 1529.03 167.183 1528.7 167.51C1528.38 167.837 1527.96 168 1527.44 168H1519.18ZM1548.38 168.7C1545.86 168.7 1543.6 168.233 1541.59 167.3C1539.63 166.32 1538.07 165.013 1536.9 163.38C1535.74 161.747 1535.15 159.903 1535.15 157.85C1535.15 154.537 1536.51 151.923 1539.21 150.01C1541.92 148.05 1545.51 146.72 1549.99 146.02L1558.74 144.69V143.71C1558.74 142.03 1558.39 140.747 1557.69 139.86C1556.99 138.973 1555.71 138.53 1553.84 138.53C1552.54 138.53 1551.46 138.787 1550.62 139.3C1549.83 139.813 1549.2 140.513 1548.73 141.4C1548.31 142.007 1547.73 142.31 1546.98 142.31H1539.14C1538.63 142.31 1538.23 142.17 1537.95 141.89C1537.67 141.563 1537.56 141.19 1537.6 140.77C1537.6 139.93 1537.91 138.973 1538.51 137.9C1539.17 136.78 1540.15 135.683 1541.45 134.61C1542.76 133.537 1544.44 132.65 1546.49 131.95C1548.55 131.25 1551.02 130.9 1553.91 130.9C1556.95 130.9 1559.54 131.25 1561.68 131.95C1563.83 132.65 1565.56 133.63 1566.86 134.89C1568.22 136.15 1569.22 137.643 1569.87 139.37C1570.53 141.05 1570.85 142.917 1570.85 144.97V166.25C1570.85 166.763 1570.67 167.183 1570.29 167.51C1569.97 167.837 1569.57 168 1569.1 168H1560.98C1560.47 168 1560.05 167.837 1559.72 167.51C1559.4 167.183 1559.23 166.763 1559.23 166.25V163.8C1558.63 164.687 1557.81 165.503 1556.78 166.25C1555.76 166.997 1554.54 167.58 1553.14 168C1551.79 168.467 1550.2 168.7 1548.38 168.7ZM1551.67 160.72C1553.03 160.72 1554.24 160.44 1555.31 159.88C1556.43 159.273 1557.3 158.363 1557.9 157.15C1558.56 155.89 1558.88 154.327 1558.88 152.46V151.48L1552.93 152.53C1550.74 152.903 1549.13 153.487 1548.1 154.28C1547.12 155.027 1546.63 155.913 1546.63 156.94C1546.63 157.733 1546.87 158.41 1547.33 158.97C1547.8 159.53 1548.41 159.973 1549.15 160.3C1549.9 160.58 1550.74 160.72 1551.67 160.72ZM1580.5 168C1579.99 168 1579.57 167.837 1579.24 167.51C1578.92 167.183 1578.75 166.763 1578.75 166.25V133.35C1578.75 132.837 1578.92 132.417 1579.24 132.09C1579.57 131.763 1579.99 131.6 1580.5 131.6H1588.55C1589.07 131.6 1589.49 131.763 1589.81 132.09C1590.14 132.417 1590.3 132.837 1590.3 133.35V136.01C1591.52 134.563 1593.1 133.35 1595.06 132.37C1597.02 131.39 1599.33 130.9 1601.99 130.9C1604.7 130.9 1607.08 131.507 1609.13 132.72C1611.23 133.933 1612.87 135.73 1614.03 138.11C1615.25 140.443 1615.85 143.313 1615.85 146.72V166.25C1615.85 166.763 1615.67 167.183 1615.29 167.51C1614.97 167.837 1614.57 168 1614.1 168H1605.28C1604.82 168 1604.4 167.837 1604.02 167.51C1603.7 167.183 1603.53 166.763 1603.53 166.25V147.14C1603.53 144.947 1603 143.267 1601.92 142.1C1600.9 140.887 1599.36 140.28 1597.3 140.28C1595.39 140.28 1593.85 140.887 1592.68 142.1C1591.56 143.267 1591 144.947 1591 147.14V166.25C1591 166.763 1590.82 167.183 1590.44 167.51C1590.12 167.837 1589.72 168 1589.25 168H1580.5ZM1640.47 168.7C1634.96 168.7 1630.57 167.207 1627.31 164.22C1624.04 161.233 1622.34 156.8 1622.2 150.92C1622.2 150.593 1622.2 150.173 1622.2 149.66C1622.2 149.147 1622.2 148.75 1622.2 148.47C1622.34 144.783 1623.15 141.633 1624.65 139.02C1626.19 136.36 1628.29 134.353 1630.95 133C1633.65 131.6 1636.8 130.9 1640.4 130.9C1644.5 130.9 1647.89 131.717 1650.55 133.35C1653.25 134.983 1655.28 137.2 1656.64 140C1657.99 142.8 1658.67 145.997 1658.67 149.59V151.27C1658.67 151.783 1658.48 152.203 1658.11 152.53C1657.78 152.857 1657.38 153.02 1656.92 153.02H1634.52C1634.52 153.067 1634.52 153.137 1634.52 153.23C1634.52 153.323 1634.52 153.417 1634.52 153.51C1634.56 154.863 1634.8 156.1 1635.22 157.22C1635.64 158.34 1636.29 159.227 1637.18 159.88C1638.06 160.533 1639.14 160.86 1640.4 160.86C1641.33 160.86 1642.1 160.72 1642.71 160.44C1643.36 160.113 1643.9 159.763 1644.32 159.39C1644.74 158.97 1645.06 158.62 1645.3 158.34C1645.72 157.873 1646.04 157.593 1646.28 157.5C1646.56 157.36 1646.98 157.29 1647.54 157.29H1656.22C1656.68 157.29 1657.06 157.43 1657.34 157.71C1657.66 157.943 1657.8 158.293 1657.76 158.76C1657.71 159.553 1657.31 160.51 1656.57 161.63C1655.82 162.75 1654.72 163.87 1653.28 164.99C1651.88 166.063 1650.1 166.95 1647.96 167.65C1645.81 168.35 1643.31 168.7 1640.47 168.7ZM1634.52 146.09H1646.35V145.95C1646.35 144.457 1646.11 143.15 1645.65 142.03C1645.23 140.91 1644.55 140.047 1643.62 139.44C1642.73 138.833 1641.66 138.53 1640.4 138.53C1639.14 138.53 1638.06 138.833 1637.18 139.44C1636.34 140.047 1635.68 140.91 1635.22 142.03C1634.75 143.15 1634.52 144.457 1634.52 145.95V146.09ZM1683.78 168C1680.79 168 1678.2 167.533 1676.01 166.6C1673.86 165.62 1672.21 164.127 1671.04 162.12C1669.87 160.067 1669.29 157.43 1669.29 154.21V140.77H1663.83C1663.32 140.77 1662.87 140.607 1662.5 140.28C1662.17 139.953 1662.01 139.533 1662.01 139.02V133.35C1662.01 132.837 1662.17 132.417 1662.5 132.09C1662.87 131.763 1663.32 131.6 1663.83 131.6H1669.29V120.05C1669.29 119.537 1669.45 119.117 1669.78 118.79C1670.15 118.463 1670.57 118.3 1671.04 118.3H1679.16C1679.67 118.3 1680.09 118.463 1680.42 118.79C1680.75 119.117 1680.91 119.537 1680.91 120.05V131.6H1689.66C1690.17 131.6 1690.59 131.763 1690.92 132.09C1691.25 132.417 1691.41 132.837 1691.41 133.35V139.02C1691.41 139.533 1691.25 139.953 1690.92 140.28C1690.59 140.607 1690.17 140.77 1689.66 140.77H1680.91V153.23C1680.91 154.817 1681.21 156.077 1681.82 157.01C1682.43 157.943 1683.45 158.41 1684.9 158.41H1690.29C1690.8 158.41 1691.22 158.573 1691.55 158.9C1691.88 159.227 1692.04 159.647 1692.04 160.16V166.25C1692.04 166.763 1691.88 167.183 1691.55 167.51C1691.22 167.837 1690.8 168 1690.29 168H1683.78ZM1718.84 168.7C1714.4 168.7 1710.58 167.977 1707.36 166.53C1704.18 165.037 1701.71 162.89 1699.94 160.09C1698.21 157.243 1697.25 153.79 1697.07 149.73C1697.02 147.723 1697 145.6 1697 143.36C1697 141.073 1697.02 138.903 1697.07 136.85C1697.25 132.883 1698.23 129.523 1700.01 126.77C1701.78 124.017 1704.28 121.917 1707.5 120.47C1710.72 119.023 1714.5 118.3 1718.84 118.3C1722.34 118.3 1725.44 118.743 1728.15 119.63C1730.85 120.47 1733.12 121.613 1734.94 123.06C1736.8 124.507 1738.2 126.093 1739.14 127.82C1740.12 129.547 1740.63 131.25 1740.68 132.93C1740.72 133.35 1740.58 133.7 1740.26 133.98C1739.98 134.26 1739.63 134.4 1739.21 134.4H1728.99C1728.47 134.4 1728.08 134.33 1727.8 134.19C1727.56 134.003 1727.35 133.747 1727.17 133.42C1726.84 132.72 1726.35 131.997 1725.7 131.25C1725.09 130.457 1724.23 129.78 1723.11 129.22C1722.03 128.66 1720.61 128.38 1718.84 128.38C1716.18 128.38 1714.08 129.08 1712.54 130.48C1711.04 131.88 1710.23 134.12 1710.09 137.2C1709.95 141.213 1709.95 145.273 1710.09 149.38C1710.23 152.647 1711.09 155.003 1712.68 156.45C1714.26 157.897 1716.36 158.62 1718.98 158.62C1720.75 158.62 1722.31 158.317 1723.67 157.71C1725.07 157.103 1726.16 156.17 1726.96 154.91C1727.75 153.603 1728.15 151.947 1728.15 149.94V148.61H1721.57C1721.05 148.61 1720.61 148.447 1720.24 148.12C1719.91 147.747 1719.75 147.303 1719.75 146.79V141.61C1719.75 141.097 1719.91 140.677 1720.24 140.35C1720.61 139.977 1721.05 139.79 1721.57 139.79H1739.21C1739.72 139.79 1740.14 139.977 1740.47 140.35C1740.79 140.677 1740.96 141.097 1740.96 141.61V149.59C1740.96 153.603 1740.05 157.033 1738.23 159.88C1736.41 162.727 1733.82 164.92 1730.46 166.46C1727.14 167.953 1723.27 168.7 1718.84 168.7ZM1769.01 168.7C1764.71 168.7 1760.98 168 1757.81 166.6C1754.63 165.2 1752.16 163.1 1750.39 160.3C1748.61 157.453 1747.63 153.907 1747.45 149.66C1747.4 147.653 1747.38 145.647 1747.38 143.64C1747.38 141.633 1747.4 139.603 1747.45 137.55C1747.63 133.35 1748.61 129.827 1750.39 126.98C1752.21 124.087 1754.7 121.917 1757.88 120.47C1761.05 119.023 1764.76 118.3 1769.01 118.3C1773.21 118.3 1776.89 119.023 1780.07 120.47C1783.29 121.917 1785.81 124.087 1787.63 126.98C1789.45 129.827 1790.43 133.35 1790.57 137.55C1790.66 139.603 1790.71 141.633 1790.71 143.64C1790.71 145.647 1790.66 147.653 1790.57 149.66C1790.38 153.907 1789.4 157.453 1787.63 160.3C1785.85 163.1 1783.38 165.2 1780.21 166.6C1777.03 168 1773.3 168.7 1769.01 168.7ZM1769.01 158.62C1771.48 158.62 1773.49 157.873 1775.03 156.38C1776.61 154.887 1777.45 152.507 1777.55 149.24C1777.64 147.187 1777.69 145.25 1777.69 143.43C1777.69 141.61 1777.64 139.72 1777.55 137.76C1777.45 135.567 1777.03 133.793 1776.29 132.44C1775.59 131.04 1774.61 130.013 1773.35 129.36C1772.09 128.707 1770.64 128.38 1769.01 128.38C1767.42 128.38 1766 128.707 1764.74 129.36C1763.48 130.013 1762.47 131.04 1761.73 132.44C1760.98 133.793 1760.56 135.567 1760.47 137.76C1760.42 139.72 1760.4 141.61 1760.4 143.43C1760.4 145.25 1760.42 147.187 1760.47 149.24C1760.61 152.507 1761.45 154.887 1762.99 156.38C1764.53 157.873 1766.53 158.62 1769.01 158.62Z" fill="white"/>
<path d="M1472.6 260C1472.16 260 1471.82 259.88 1471.58 259.64C1471.34 259.36 1471.22 259.02 1471.22 258.62V219.44C1471.22 219 1471.34 218.66 1471.58 218.42C1471.82 218.14 1472.16 218 1472.6 218H1487.84C1490.8 218 1493.36 218.48 1495.52 219.44C1497.72 220.4 1499.42 221.84 1500.62 223.76C1501.82 225.64 1502.42 228 1502.42 230.84C1502.42 233.68 1501.82 236.04 1500.62 237.92C1499.42 239.8 1497.72 241.22 1495.52 242.18C1493.36 243.14 1490.8 243.62 1487.84 243.62H1477.22V258.62C1477.22 259.02 1477.08 259.36 1476.8 259.64C1476.56 259.88 1476.22 260 1475.78 260H1472.6ZM1477.16 238.58H1487.54C1490.5 238.58 1492.72 237.92 1494.2 236.6C1495.68 235.28 1496.42 233.36 1496.42 230.84C1496.42 228.36 1495.7 226.44 1494.26 225.08C1492.82 223.72 1490.58 223.04 1487.54 223.04H1477.16V238.58ZM1510.38 260C1509.98 260 1509.64 259.88 1509.36 259.64C1509.12 259.36 1509 259.02 1509 258.62V218.78C1509 218.38 1509.12 218.06 1509.36 217.82C1509.64 217.54 1509.98 217.4 1510.38 217.4H1513.2C1513.64 217.4 1513.98 217.54 1514.22 217.82C1514.46 218.06 1514.58 218.38 1514.58 218.78V258.62C1514.58 259.02 1514.46 259.36 1514.22 259.64C1513.98 259.88 1513.64 260 1513.2 260H1510.38ZM1532.23 260.6C1530.23 260.6 1528.41 260.2 1526.77 259.4C1525.13 258.6 1523.81 257.52 1522.81 256.16C1521.81 254.8 1521.31 253.26 1521.31 251.54C1521.31 248.78 1522.43 246.58 1524.67 244.94C1526.91 243.3 1529.83 242.22 1533.43 241.7L1542.37 240.44V238.7C1542.37 236.78 1541.81 235.28 1540.69 234.2C1539.61 233.12 1537.83 232.58 1535.35 232.58C1533.55 232.58 1532.09 232.94 1530.97 233.66C1529.89 234.38 1529.13 235.3 1528.69 236.42C1528.45 237.02 1528.03 237.32 1527.43 237.32H1524.73C1524.29 237.32 1523.95 237.2 1523.71 236.96C1523.51 236.68 1523.41 236.36 1523.41 236C1523.41 235.4 1523.63 234.66 1524.07 233.78C1524.55 232.9 1525.27 232.04 1526.23 231.2C1527.19 230.36 1528.41 229.66 1529.89 229.1C1531.41 228.5 1533.25 228.2 1535.41 228.2C1537.81 228.2 1539.83 228.52 1541.47 229.16C1543.11 229.76 1544.39 230.58 1545.31 231.62C1546.27 232.66 1546.95 233.84 1547.35 235.16C1547.79 236.48 1548.01 237.82 1548.01 239.18V258.62C1548.01 259.02 1547.87 259.36 1547.59 259.64C1547.35 259.88 1547.03 260 1546.63 260H1543.87C1543.43 260 1543.09 259.88 1542.85 259.64C1542.61 259.36 1542.49 259.02 1542.49 258.62V256.04C1541.97 256.76 1541.27 257.48 1540.39 258.2C1539.51 258.88 1538.41 259.46 1537.09 259.94C1535.77 260.38 1534.15 260.6 1532.23 260.6ZM1533.49 256.1C1535.13 256.1 1536.63 255.76 1537.99 255.08C1539.35 254.36 1540.41 253.26 1541.17 251.78C1541.97 250.3 1542.37 248.44 1542.37 246.2V244.52L1535.41 245.54C1532.57 245.94 1530.43 246.62 1528.99 247.58C1527.55 248.5 1526.83 249.68 1526.83 251.12C1526.83 252.24 1527.15 253.18 1527.79 253.94C1528.47 254.66 1529.31 255.2 1530.31 255.56C1531.35 255.92 1532.41 256.1 1533.49 256.1ZM1558.01 260C1557.61 260 1557.27 259.88 1556.99 259.64C1556.75 259.36 1556.63 259.02 1556.63 258.62V230.18C1556.63 229.78 1556.75 229.46 1556.99 229.22C1557.27 228.94 1557.61 228.8 1558.01 228.8H1560.83C1561.23 228.8 1561.55 228.94 1561.79 229.22C1562.07 229.46 1562.21 229.78 1562.21 230.18V232.82C1563.25 231.46 1564.55 230.36 1566.11 229.52C1567.71 228.64 1569.75 228.2 1572.23 228.2C1574.83 228.2 1577.03 228.78 1578.83 229.94C1580.67 231.06 1582.05 232.64 1582.97 234.68C1583.89 236.68 1584.35 239.02 1584.35 241.7V258.62C1584.35 259.02 1584.23 259.36 1583.99 259.64C1583.75 259.88 1583.43 260 1583.03 260H1580.03C1579.63 260 1579.29 259.88 1579.01 259.64C1578.77 259.36 1578.65 259.02 1578.65 258.62V242C1578.65 239.2 1577.97 237.02 1576.61 235.46C1575.25 233.86 1573.25 233.06 1570.61 233.06C1568.13 233.06 1566.13 233.86 1564.61 235.46C1563.13 237.02 1562.39 239.2 1562.39 242V258.62C1562.39 259.02 1562.25 259.36 1561.97 259.64C1561.73 259.88 1561.41 260 1561.01 260H1558.01ZM1594.4 260C1594 260 1593.66 259.88 1593.38 259.64C1593.14 259.36 1593.02 259.02 1593.02 258.62V230.18C1593.02 229.78 1593.14 229.46 1593.38 229.22C1593.66 228.94 1594 228.8 1594.4 228.8H1597.22C1597.62 228.8 1597.94 228.94 1598.18 229.22C1598.46 229.46 1598.6 229.78 1598.6 230.18V232.82C1599.64 231.46 1600.94 230.36 1602.5 229.52C1604.1 228.64 1606.14 228.2 1608.62 228.2C1611.22 228.2 1613.42 228.78 1615.22 229.94C1617.06 231.06 1618.44 232.64 1619.36 234.68C1620.28 236.68 1620.74 239.02 1620.74 241.7V258.62C1620.74 259.02 1620.62 259.36 1620.38 259.64C1620.14 259.88 1619.82 260 1619.42 260H1616.42C1616.02 260 1615.68 259.88 1615.4 259.64C1615.16 259.36 1615.04 259.02 1615.04 258.62V242C1615.04 239.2 1614.36 237.02 1613 235.46C1611.64 233.86 1609.64 233.06 1607 233.06C1604.52 233.06 1602.52 233.86 1601 235.46C1599.52 237.02 1598.78 239.2 1598.78 242V258.62C1598.78 259.02 1598.64 259.36 1598.36 259.64C1598.12 259.88 1597.8 260 1597.4 260H1594.4ZM1630.78 260C1630.38 260 1630.04 259.88 1629.76 259.64C1629.52 259.36 1629.4 259.02 1629.4 258.62V230.18C1629.4 229.78 1629.52 229.46 1629.76 229.22C1630.04 228.94 1630.38 228.8 1630.78 228.8H1633.66C1634.06 228.8 1634.38 228.94 1634.62 229.22C1634.86 229.46 1634.98 229.78 1634.98 230.18V258.62C1634.98 259.02 1634.86 259.36 1634.62 259.64C1634.38 259.88 1634.06 260 1633.66 260H1630.78ZM1630.3 222.98C1629.9 222.98 1629.56 222.86 1629.28 222.62C1629.04 222.34 1628.92 222 1628.92 221.6V218.36C1628.92 217.96 1629.04 217.64 1629.28 217.4C1629.56 217.12 1629.9 216.98 1630.3 216.98H1634.08C1634.48 216.98 1634.8 217.12 1635.04 217.4C1635.32 217.64 1635.46 217.96 1635.46 218.36V221.6C1635.46 222 1635.32 222.34 1635.04 222.62C1634.8 222.86 1634.48 222.98 1634.08 222.98H1630.3ZM1645.9 260C1645.5 260 1645.16 259.88 1644.88 259.64C1644.64 259.36 1644.52 259.02 1644.52 258.62V230.18C1644.52 229.78 1644.64 229.46 1644.88 229.22C1645.16 228.94 1645.5 228.8 1645.9 228.8H1648.72C1649.12 228.8 1649.44 228.94 1649.68 229.22C1649.96 229.46 1650.1 229.78 1650.1 230.18V232.82C1651.14 231.46 1652.44 230.36 1654 229.52C1655.6 228.64 1657.64 228.2 1660.12 228.2C1662.72 228.2 1664.92 228.78 1666.72 229.94C1668.56 231.06 1669.94 232.64 1670.86 234.68C1671.78 236.68 1672.24 239.02 1672.24 241.7V258.62C1672.24 259.02 1672.12 259.36 1671.88 259.64C1671.64 259.88 1671.32 260 1670.92 260H1667.92C1667.52 260 1667.18 259.88 1666.9 259.64C1666.66 259.36 1666.54 259.02 1666.54 258.62V242C1666.54 239.2 1665.86 237.02 1664.5 235.46C1663.14 233.86 1661.14 233.06 1658.5 233.06C1656.02 233.06 1654.02 233.86 1652.5 235.46C1651.02 237.02 1650.28 239.2 1650.28 242V258.62C1650.28 259.02 1650.14 259.36 1649.86 259.64C1649.62 259.88 1649.3 260 1648.9 260H1645.9ZM1693.69 273.2C1690.97 273.2 1688.73 272.84 1686.97 272.12C1685.25 271.4 1683.89 270.52 1682.89 269.48C1681.93 268.48 1681.23 267.46 1680.79 266.42C1680.39 265.42 1680.17 264.62 1680.13 264.02C1680.09 263.62 1680.21 263.28 1680.49 263C1680.81 262.72 1681.15 262.58 1681.51 262.58H1684.39C1684.75 262.58 1685.05 262.66 1685.29 262.82C1685.53 262.98 1685.73 263.32 1685.89 263.84C1686.13 264.44 1686.49 265.1 1686.97 265.82C1687.45 266.58 1688.19 267.22 1689.19 267.74C1690.19 268.3 1691.59 268.58 1693.39 268.58C1695.27 268.58 1696.85 268.32 1698.13 267.8C1699.41 267.32 1700.37 266.44 1701.01 265.16C1701.69 263.92 1702.03 262.2 1702.03 260V255.92C1701.07 257.16 1699.81 258.2 1698.25 259.04C1696.69 259.84 1694.73 260.24 1692.37 260.24C1690.13 260.24 1688.21 259.86 1686.61 259.1C1685.01 258.3 1683.69 257.24 1682.65 255.92C1681.65 254.56 1680.89 253.02 1680.37 251.3C1679.89 249.58 1679.61 247.78 1679.53 245.9C1679.49 244.78 1679.49 243.68 1679.53 242.6C1679.61 240.72 1679.89 238.92 1680.37 237.2C1680.89 235.48 1681.65 233.94 1682.65 232.58C1683.69 231.22 1685.01 230.16 1686.61 229.4C1688.21 228.6 1690.13 228.2 1692.37 228.2C1694.77 228.2 1696.75 228.66 1698.31 229.58C1699.91 230.46 1701.21 231.54 1702.21 232.82V230.24C1702.21 229.84 1702.33 229.5 1702.57 229.22C1702.85 228.94 1703.19 228.8 1703.59 228.8H1706.35C1706.75 228.8 1707.09 228.94 1707.37 229.22C1707.65 229.5 1707.79 229.84 1707.79 230.24V259.34C1707.79 262.02 1707.33 264.4 1706.41 266.48C1705.53 268.56 1704.05 270.2 1701.97 271.4C1699.93 272.6 1697.17 273.2 1693.69 273.2ZM1693.57 255.44C1695.57 255.44 1697.17 254.98 1698.37 254.06C1699.61 253.14 1700.51 251.98 1701.07 250.58C1701.67 249.18 1701.99 247.76 1702.03 246.32C1702.07 245.76 1702.09 245.08 1702.09 244.28C1702.09 243.44 1702.07 242.74 1702.03 242.18C1701.99 240.74 1701.67 239.32 1701.07 237.92C1700.51 236.52 1699.61 235.36 1698.37 234.44C1697.17 233.52 1695.57 233.06 1693.57 233.06C1691.57 233.06 1689.97 233.52 1688.77 234.44C1687.57 235.32 1686.71 236.5 1686.19 237.98C1685.67 239.42 1685.37 240.98 1685.29 242.66C1685.25 243.7 1685.25 244.76 1685.29 245.84C1685.37 247.52 1685.67 249.1 1686.19 250.58C1686.71 252.02 1687.57 253.2 1688.77 254.12C1689.97 255 1691.57 255.44 1693.57 255.44ZM1742.22 260.6C1739.98 260.6 1738.06 260.32 1736.46 259.76C1734.86 259.2 1733.56 258.52 1732.56 257.72C1731.56 256.92 1730.8 256.12 1730.28 255.32C1729.8 254.52 1729.54 253.88 1729.5 253.4C1729.46 252.96 1729.6 252.62 1729.92 252.38C1730.24 252.14 1730.56 252.02 1730.88 252.02H1733.52C1733.76 252.02 1733.94 252.06 1734.06 252.14C1734.22 252.18 1734.42 252.34 1734.66 252.62C1735.18 253.18 1735.76 253.74 1736.4 254.3C1737.04 254.86 1737.82 255.32 1738.74 255.68C1739.7 256.04 1740.88 256.22 1742.28 256.22C1744.32 256.22 1746 255.84 1747.32 255.08C1748.64 254.28 1749.3 253.12 1749.3 251.6C1749.3 250.6 1749.02 249.8 1748.46 249.2C1747.94 248.6 1746.98 248.06 1745.58 247.58C1744.22 247.1 1742.34 246.6 1739.94 246.08C1737.54 245.52 1735.64 244.84 1734.24 244.04C1732.84 243.2 1731.84 242.22 1731.24 241.1C1730.64 239.94 1730.34 238.64 1730.34 237.2C1730.34 235.72 1730.78 234.3 1731.66 232.94C1732.54 231.54 1733.82 230.4 1735.5 229.52C1737.22 228.64 1739.36 228.2 1741.92 228.2C1744 228.2 1745.78 228.46 1747.26 228.98C1748.74 229.5 1749.96 230.16 1750.92 230.96C1751.88 231.72 1752.6 232.48 1753.08 233.24C1753.56 234 1753.82 234.64 1753.86 235.16C1753.9 235.56 1753.78 235.9 1753.5 236.18C1753.22 236.42 1752.9 236.54 1752.54 236.54H1750.02C1749.74 236.54 1749.5 236.48 1749.3 236.36C1749.14 236.24 1748.98 236.1 1748.82 235.94C1748.42 235.42 1747.94 234.9 1747.38 234.38C1746.86 233.86 1746.16 233.44 1745.28 233.12C1744.44 232.76 1743.32 232.58 1741.92 232.58C1739.92 232.58 1738.42 233 1737.42 233.84C1736.42 234.68 1735.92 235.74 1735.92 237.02C1735.92 237.78 1736.14 238.46 1736.58 239.06C1737.02 239.66 1737.86 240.2 1739.1 240.68C1740.34 241.16 1742.18 241.68 1744.62 242.24C1747.26 242.76 1749.34 243.46 1750.86 244.34C1752.38 245.22 1753.46 246.24 1754.1 247.4C1754.74 248.56 1755.06 249.9 1755.06 251.42C1755.06 253.1 1754.56 254.64 1753.56 256.04C1752.6 257.44 1751.16 258.56 1749.24 259.4C1747.36 260.2 1745.02 260.6 1742.22 260.6ZM1773.64 260.6C1771.08 260.6 1768.9 260.04 1767.1 258.92C1765.34 257.76 1764 256.16 1763.08 254.12C1762.16 252.08 1761.7 249.74 1761.7 247.1V230.18C1761.7 229.78 1761.82 229.46 1762.06 229.22C1762.34 228.94 1762.68 228.8 1763.08 228.8H1766.08C1766.48 228.8 1766.8 228.94 1767.04 229.22C1767.32 229.46 1767.46 229.78 1767.46 230.18V246.8C1767.46 252.76 1770.06 255.74 1775.26 255.74C1777.74 255.74 1779.72 254.96 1781.2 253.4C1782.72 251.8 1783.48 249.6 1783.48 246.8V230.18C1783.48 229.78 1783.6 229.46 1783.84 229.22C1784.12 228.94 1784.46 228.8 1784.86 228.8H1787.8C1788.24 228.8 1788.58 228.94 1788.82 229.22C1789.06 229.46 1789.18 229.78 1789.18 230.18V258.62C1789.18 259.02 1789.06 259.36 1788.82 259.64C1788.58 259.88 1788.24 260 1787.8 260H1785.04C1784.64 260 1784.3 259.88 1784.02 259.64C1783.78 259.36 1783.66 259.02 1783.66 258.62V255.98C1782.58 257.38 1781.26 258.5 1779.7 259.34C1778.18 260.18 1776.16 260.6 1773.64 260.6ZM1810.7 260.6C1807.86 260.6 1805.4 260.06 1803.32 258.98C1801.28 257.86 1799.7 256.28 1798.58 254.24C1797.46 252.16 1796.86 249.68 1796.78 246.8C1796.74 246.2 1796.72 245.4 1796.72 244.4C1796.72 243.4 1796.74 242.6 1796.78 242C1796.86 239.12 1797.46 236.66 1798.58 234.62C1799.7 232.54 1801.28 230.96 1803.32 229.88C1805.4 228.76 1807.86 228.2 1810.7 228.2C1813.02 228.2 1815 228.52 1816.64 229.16C1818.32 229.8 1819.7 230.62 1820.78 231.62C1821.86 232.62 1822.66 233.7 1823.18 234.86C1823.74 236.02 1824.04 237.12 1824.08 238.16C1824.12 238.56 1824 238.88 1823.72 239.12C1823.44 239.36 1823.1 239.48 1822.7 239.48H1819.82C1819.42 239.48 1819.12 239.4 1818.92 239.24C1818.72 239.04 1818.52 238.72 1818.32 238.28C1817.6 236.32 1816.62 234.94 1815.38 234.14C1814.14 233.34 1812.6 232.94 1810.76 232.94C1808.36 232.94 1806.4 233.68 1804.88 235.16C1803.4 236.64 1802.6 239.02 1802.48 242.3C1802.44 243.74 1802.44 245.14 1802.48 246.5C1802.6 249.82 1803.4 252.22 1804.88 253.7C1806.4 255.14 1808.36 255.86 1810.76 255.86C1812.6 255.86 1814.14 255.46 1815.38 254.66C1816.62 253.86 1817.6 252.48 1818.32 250.52C1818.52 250.08 1818.72 249.78 1818.92 249.62C1819.12 249.42 1819.42 249.32 1819.82 249.32H1822.7C1823.1 249.32 1823.44 249.44 1823.72 249.68C1824 249.92 1824.12 250.24 1824.08 250.64C1824.04 251.48 1823.86 252.34 1823.54 253.22C1823.22 254.1 1822.7 255 1821.98 255.92C1821.3 256.8 1820.44 257.6 1819.4 258.32C1818.36 259 1817.1 259.56 1815.62 260C1814.18 260.4 1812.54 260.6 1810.7 260.6ZM1832.64 260C1832.24 260 1831.9 259.88 1831.62 259.64C1831.38 259.36 1831.26 259.02 1831.26 258.62V218.78C1831.26 218.38 1831.38 218.06 1831.62 217.82C1831.9 217.54 1832.24 217.4 1832.64 217.4H1835.46C1835.86 217.4 1836.18 217.54 1836.42 217.82C1836.7 218.06 1836.84 218.38 1836.84 218.78V239.66L1848.66 229.82C1849.14 229.42 1849.5 229.16 1849.74 229.04C1850.02 228.88 1850.46 228.8 1851.06 228.8H1854.24C1854.6 228.8 1854.9 228.92 1855.14 229.16C1855.38 229.4 1855.5 229.7 1855.5 230.06C1855.5 230.22 1855.44 230.4 1855.32 230.6C1855.24 230.8 1855.06 231 1854.78 231.2L1840.92 242.72L1856.28 257.66C1856.76 258.06 1857 258.42 1857 258.74C1857 259.1 1856.88 259.4 1856.64 259.64C1856.4 259.88 1856.1 260 1855.74 260H1852.62C1852.02 260 1851.58 259.94 1851.3 259.82C1851.02 259.66 1850.66 259.38 1850.22 258.98L1836.84 246.2V258.62C1836.84 259.02 1836.7 259.36 1836.42 259.64C1836.18 259.88 1835.86 260 1835.46 260H1832.64ZM1872.35 260.6C1870.11 260.6 1868.19 260.32 1866.59 259.76C1864.99 259.2 1863.69 258.52 1862.69 257.72C1861.69 256.92 1860.93 256.12 1860.41 255.32C1859.93 254.52 1859.67 253.88 1859.63 253.4C1859.59 252.96 1859.73 252.62 1860.05 252.38C1860.37 252.14 1860.69 252.02 1861.01 252.02H1863.65C1863.89 252.02 1864.07 252.06 1864.19 252.14C1864.35 252.18 1864.55 252.34 1864.79 252.62C1865.31 253.18 1865.89 253.74 1866.53 254.3C1867.17 254.86 1867.95 255.32 1868.87 255.68C1869.83 256.04 1871.01 256.22 1872.41 256.22C1874.45 256.22 1876.13 255.84 1877.45 255.08C1878.77 254.28 1879.43 253.12 1879.43 251.6C1879.43 250.6 1879.15 249.8 1878.59 249.2C1878.07 248.6 1877.11 248.06 1875.71 247.58C1874.35 247.1 1872.47 246.6 1870.07 246.08C1867.67 245.52 1865.77 244.84 1864.37 244.04C1862.97 243.2 1861.97 242.22 1861.37 241.1C1860.77 239.94 1860.47 238.64 1860.47 237.2C1860.47 235.72 1860.91 234.3 1861.79 232.94C1862.67 231.54 1863.95 230.4 1865.63 229.52C1867.35 228.64 1869.49 228.2 1872.05 228.2C1874.13 228.2 1875.91 228.46 1877.39 228.98C1878.87 229.5 1880.09 230.16 1881.05 230.96C1882.01 231.72 1882.73 232.48 1883.21 233.24C1883.69 234 1883.95 234.64 1883.99 235.16C1884.03 235.56 1883.91 235.9 1883.63 236.18C1883.35 236.42 1883.03 236.54 1882.67 236.54H1880.15C1879.87 236.54 1879.63 236.48 1879.43 236.36C1879.27 236.24 1879.11 236.1 1878.95 235.94C1878.55 235.42 1878.07 234.9 1877.51 234.38C1876.99 233.86 1876.29 233.44 1875.41 233.12C1874.57 232.76 1873.45 232.58 1872.05 232.58C1870.05 232.58 1868.55 233 1867.55 233.84C1866.55 234.68 1866.05 235.74 1866.05 237.02C1866.05 237.78 1866.27 238.46 1866.71 239.06C1867.15 239.66 1867.99 240.2 1869.23 240.68C1870.47 241.16 1872.31 241.68 1874.75 242.24C1877.39 242.76 1879.47 243.46 1880.99 244.34C1882.51 245.22 1883.59 246.24 1884.23 247.4C1884.87 248.56 1885.19 249.9 1885.19 251.42C1885.19 253.1 1884.69 254.64 1883.69 256.04C1882.73 257.44 1881.29 258.56 1879.37 259.4C1877.49 260.2 1875.15 260.6 1872.35 260.6ZM1891.72 264.5C1891.4 264.5 1891.14 264.38 1890.94 264.14C1890.78 263.9 1890.72 263.6 1890.76 263.24L1892.14 254.66C1892.22 254.18 1892.38 253.78 1892.62 253.46C1892.9 253.1 1893.3 252.92 1893.82 252.92H1897.84C1898.12 252.92 1898.34 253.02 1898.5 253.22C1898.7 253.42 1898.8 253.66 1898.8 253.94C1898.8 254.26 1898.72 254.58 1898.56 254.9L1895.44 263.12C1895.28 263.52 1895.06 263.84 1894.78 264.08C1894.54 264.36 1894.18 264.5 1893.7 264.5H1891.72ZM1928.71 260C1928.19 260 1927.77 259.86 1927.45 259.58C1927.17 259.3 1926.97 258.9 1926.85 258.38L1919.11 219.86C1919.07 219.7 1919.05 219.56 1919.05 219.44C1919.05 219.32 1919.05 219.24 1919.05 219.2C1919.05 218.88 1919.17 218.6 1919.41 218.36C1919.65 218.12 1919.93 218 1920.25 218H1923.37C1924.21 218 1924.69 218.34 1924.81 219.02L1930.93 249.98L1937.41 228.74C1937.53 228.38 1937.73 228.06 1938.01 227.78C1938.33 227.46 1938.77 227.3 1939.33 227.3H1941.55C1942.15 227.3 1942.59 227.46 1942.87 227.78C1943.15 228.06 1943.33 228.38 1943.41 228.74L1949.95 249.98L1956.01 219.02C1956.13 218.34 1956.63 218 1957.51 218H1960.63C1960.95 218 1961.23 218.12 1961.47 218.36C1961.71 218.6 1961.83 218.88 1961.83 219.2C1961.83 219.24 1961.81 219.32 1961.77 219.44C1961.77 219.56 1961.77 219.7 1961.77 219.86L1954.03 258.38C1953.91 258.9 1953.69 259.3 1953.37 259.58C1953.09 259.86 1952.69 260 1952.17 260H1949.83C1949.27 260 1948.83 259.86 1948.51 259.58C1948.19 259.3 1947.97 258.94 1947.85 258.5L1940.41 235.64L1933.03 258.5C1932.87 258.94 1932.63 259.3 1932.31 259.58C1932.03 259.86 1931.61 260 1931.05 260H1928.71ZM1980.03 260.6C1975.91 260.6 1972.63 259.34 1970.19 256.82C1967.75 254.26 1966.41 250.78 1966.17 246.38C1966.13 245.86 1966.11 245.2 1966.11 244.4C1966.11 243.56 1966.13 242.88 1966.17 242.36C1966.33 239.52 1966.99 237.04 1968.15 234.92C1969.31 232.76 1970.89 231.1 1972.89 229.94C1974.93 228.78 1977.31 228.2 1980.03 228.2C1983.07 228.2 1985.61 228.84 1987.65 230.12C1989.73 231.4 1991.31 233.22 1992.39 235.58C1993.47 237.94 1994.01 240.7 1994.01 243.86V244.88C1994.01 245.32 1993.87 245.66 1993.59 245.9C1993.35 246.14 1993.03 246.26 1992.63 246.26H1971.87C1971.87 246.3 1971.87 246.38 1971.87 246.5C1971.87 246.62 1971.87 246.72 1971.87 246.8C1971.95 248.44 1972.31 249.98 1972.95 251.42C1973.59 252.82 1974.51 253.96 1975.71 254.84C1976.91 255.72 1978.35 256.16 1980.03 256.16C1981.47 256.16 1982.67 255.94 1983.63 255.5C1984.59 255.06 1985.37 254.58 1985.97 254.06C1986.57 253.5 1986.97 253.08 1987.17 252.8C1987.53 252.28 1987.81 251.98 1988.01 251.9C1988.21 251.78 1988.53 251.72 1988.97 251.72H1991.85C1992.25 251.72 1992.57 251.84 1992.81 252.08C1993.09 252.28 1993.21 252.58 1993.17 252.98C1993.13 253.58 1992.81 254.32 1992.21 255.2C1991.61 256.04 1990.75 256.88 1989.63 257.72C1988.51 258.56 1987.15 259.26 1985.55 259.82C1983.95 260.34 1982.11 260.6 1980.03 260.6ZM1971.87 242.12H1988.31V241.94C1988.31 240.14 1987.97 238.54 1987.29 237.14C1986.65 235.74 1985.71 234.64 1984.47 233.84C1983.23 233 1981.75 232.58 1980.03 232.58C1978.31 232.58 1976.83 233 1975.59 233.84C1974.39 234.64 1973.47 235.74 1972.83 237.14C1972.19 238.54 1971.87 240.14 1971.87 241.94V242.12ZM2019.28 260C2018.88 260 2018.54 259.88 2018.26 259.64C2018.02 259.36 2017.9 259.02 2017.9 258.62V233.6H2012.8C2012.4 233.6 2012.06 233.48 2011.78 233.24C2011.54 232.96 2011.42 232.62 2011.42 232.22V230.18C2011.42 229.78 2011.54 229.46 2011.78 229.22C2012.06 228.94 2012.4 228.8 2012.8 228.8H2017.9V225.8C2017.9 223.76 2018.24 221.98 2018.92 220.46C2019.6 218.9 2020.68 217.7 2022.16 216.86C2023.68 216.02 2025.7 215.6 2028.22 215.6H2037.46C2037.86 215.6 2038.18 215.74 2038.42 216.02C2038.7 216.26 2038.84 216.58 2038.84 216.98V219.02C2038.84 219.42 2038.7 219.76 2038.42 220.04C2038.18 220.28 2037.86 220.4 2037.46 220.4H2028.34C2026.46 220.4 2025.18 220.9 2024.5 221.9C2023.82 222.86 2023.48 224.26 2023.48 226.1V228.8H2037.46C2037.86 228.8 2038.18 228.94 2038.42 229.22C2038.7 229.46 2038.84 229.78 2038.84 230.18V258.62C2038.84 259.02 2038.7 259.36 2038.42 259.64C2038.18 259.88 2037.86 260 2037.46 260H2034.7C2034.26 260 2033.92 259.88 2033.68 259.64C2033.44 259.36 2033.32 259.02 2033.32 258.62V233.6H2023.48V258.62C2023.48 259.02 2023.34 259.36 2023.06 259.64C2022.82 259.88 2022.5 260 2022.1 260H2019.28ZM2046.27 260C2045.95 260 2045.65 259.88 2045.37 259.64C2045.13 259.4 2045.01 259.1 2045.01 258.74C2045.01 258.62 2045.03 258.48 2045.07 258.32C2045.15 258.12 2045.27 257.9 2045.43 257.66L2055.87 244.04L2046.09 231.14C2045.93 230.9 2045.81 230.7 2045.73 230.54C2045.69 230.38 2045.67 230.22 2045.67 230.06C2045.67 229.7 2045.79 229.4 2046.03 229.16C2046.27 228.92 2046.57 228.8 2046.93 228.8H2049.99C2050.43 228.8 2050.75 228.92 2050.95 229.16C2051.19 229.36 2051.39 229.56 2051.55 229.76L2059.53 240.14L2067.51 229.82C2067.67 229.62 2067.85 229.4 2068.05 229.16C2068.29 228.92 2068.63 228.8 2069.07 228.8H2072.01C2072.37 228.8 2072.67 228.92 2072.91 229.16C2073.15 229.4 2073.27 229.7 2073.27 230.06C2073.27 230.22 2073.23 230.38 2073.15 230.54C2073.11 230.7 2073.01 230.9 2072.85 231.14L2062.95 244.16L2073.39 257.66C2073.55 257.9 2073.65 258.1 2073.69 258.26C2073.77 258.42 2073.81 258.58 2073.81 258.74C2073.81 259.1 2073.69 259.4 2073.45 259.64C2073.21 259.88 2072.91 260 2072.55 260H2069.37C2068.97 260 2068.65 259.9 2068.41 259.7C2068.17 259.5 2067.97 259.3 2067.81 259.1L2059.35 248.12L2050.89 259.1C2050.73 259.26 2050.53 259.46 2050.29 259.7C2050.09 259.9 2049.77 260 2049.33 260H2046.27ZM2091.65 260.6C2087.53 260.6 2084.25 259.34 2081.81 256.82C2079.37 254.26 2078.03 250.78 2077.79 246.38C2077.75 245.86 2077.73 245.2 2077.73 244.4C2077.73 243.56 2077.75 242.88 2077.79 242.36C2077.95 239.52 2078.61 237.04 2079.77 234.92C2080.93 232.76 2082.51 231.1 2084.51 229.94C2086.55 228.78 2088.93 228.2 2091.65 228.2C2094.69 228.2 2097.23 228.84 2099.27 230.12C2101.35 231.4 2102.93 233.22 2104.01 235.58C2105.09 237.94 2105.63 240.7 2105.63 243.86V244.88C2105.63 245.32 2105.49 245.66 2105.21 245.9C2104.97 246.14 2104.65 246.26 2104.25 246.26H2083.49C2083.49 246.3 2083.49 246.38 2083.49 246.5C2083.49 246.62 2083.49 246.72 2083.49 246.8C2083.57 248.44 2083.93 249.98 2084.57 251.42C2085.21 252.82 2086.13 253.96 2087.33 254.84C2088.53 255.72 2089.97 256.16 2091.65 256.16C2093.09 256.16 2094.29 255.94 2095.25 255.5C2096.21 255.06 2096.99 254.58 2097.59 254.06C2098.19 253.5 2098.59 253.08 2098.79 252.8C2099.15 252.28 2099.43 251.98 2099.63 251.9C2099.83 251.78 2100.15 251.72 2100.59 251.72H2103.47C2103.87 251.72 2104.19 251.84 2104.43 252.08C2104.71 252.28 2104.83 252.58 2104.79 252.98C2104.75 253.58 2104.43 254.32 2103.83 255.2C2103.23 256.04 2102.37 256.88 2101.25 257.72C2100.13 258.56 2098.77 259.26 2097.17 259.82C2095.57 260.34 2093.73 260.6 2091.65 260.6ZM2083.49 242.12H2099.93V241.94C2099.93 240.14 2099.59 238.54 2098.91 237.14C2098.27 235.74 2097.33 234.64 2096.09 233.84C2094.85 233 2093.37 232.58 2091.65 232.58C2089.93 232.58 2088.45 233 2087.21 233.84C2086.01 234.64 2085.09 235.74 2084.45 237.14C2083.81 238.54 2083.49 240.14 2083.49 241.94V242.12ZM2124.2 260.6C2122 260.6 2120.1 260.22 2118.5 259.46C2116.9 258.66 2115.58 257.6 2114.54 256.28C2113.54 254.92 2112.78 253.38 2112.26 251.66C2111.78 249.94 2111.5 248.12 2111.42 246.2C2111.38 245.56 2111.36 244.96 2111.36 244.4C2111.36 243.84 2111.38 243.24 2111.42 242.6C2111.5 240.72 2111.78 238.92 2112.26 237.2C2112.78 235.48 2113.54 233.94 2114.54 232.58C2115.58 231.22 2116.9 230.16 2118.5 229.4C2120.1 228.6 2122 228.2 2124.2 228.2C2126.56 228.2 2128.52 228.62 2130.08 229.46C2131.64 230.3 2132.92 231.34 2133.92 232.58V218.78C2133.92 218.38 2134.04 218.06 2134.28 217.82C2134.56 217.54 2134.9 217.4 2135.3 217.4H2138.18C2138.58 217.4 2138.9 217.54 2139.14 217.82C2139.42 218.06 2139.56 218.38 2139.56 218.78V258.62C2139.56 259.02 2139.42 259.36 2139.14 259.64C2138.9 259.88 2138.58 260 2138.18 260H2135.48C2135.04 260 2134.7 259.88 2134.46 259.64C2134.22 259.36 2134.1 259.02 2134.1 258.62V256.1C2133.1 257.38 2131.8 258.46 2130.2 259.34C2128.6 260.18 2126.6 260.6 2124.2 260.6ZM2125.46 255.74C2127.46 255.74 2129.06 255.28 2130.26 254.36C2131.46 253.44 2132.36 252.28 2132.96 250.88C2133.56 249.44 2133.88 247.98 2133.92 246.5C2133.96 245.86 2133.98 245.1 2133.98 244.22C2133.98 243.3 2133.96 242.52 2133.92 241.88C2133.88 240.48 2133.54 239.1 2132.9 237.74C2132.3 236.38 2131.38 235.26 2130.14 234.38C2128.94 233.5 2127.38 233.06 2125.46 233.06C2123.42 233.06 2121.8 233.52 2120.6 234.44C2119.4 235.32 2118.54 236.5 2118.02 237.98C2117.5 239.42 2117.2 240.98 2117.12 242.66C2117.08 243.82 2117.08 244.98 2117.12 246.14C2117.2 247.82 2117.5 249.4 2118.02 250.88C2118.54 252.32 2119.4 253.5 2120.6 254.42C2121.8 255.3 2123.42 255.74 2125.46 255.74ZM2164.57 260C2164.17 260 2163.83 259.88 2163.55 259.64C2163.31 259.36 2163.19 259.02 2163.19 258.62V230.18C2163.19 229.78 2163.31 229.46 2163.55 229.22C2163.83 228.94 2164.17 228.8 2164.57 228.8H2167.45C2167.85 228.8 2168.17 228.94 2168.41 229.22C2168.65 229.46 2168.77 229.78 2168.77 230.18V258.62C2168.77 259.02 2168.65 259.36 2168.41 259.64C2168.17 259.88 2167.85 260 2167.45 260H2164.57ZM2164.09 222.98C2163.69 222.98 2163.35 222.86 2163.07 222.62C2162.83 222.34 2162.71 222 2162.71 221.6V218.36C2162.71 217.96 2162.83 217.64 2163.07 217.4C2163.35 217.12 2163.69 216.98 2164.09 216.98H2167.87C2168.27 216.98 2168.59 217.12 2168.83 217.4C2169.11 217.64 2169.25 217.96 2169.25 218.36V221.6C2169.25 222 2169.11 222.34 2168.83 222.62C2168.59 222.86 2168.27 222.98 2167.87 222.98H2164.09ZM2189.91 260C2187.67 260 2185.85 259.58 2184.45 258.74C2183.05 257.86 2182.03 256.64 2181.39 255.08C2180.75 253.48 2180.43 251.6 2180.43 249.44V233.6H2175.75C2175.35 233.6 2175.01 233.48 2174.73 233.24C2174.49 232.96 2174.37 232.62 2174.37 232.22V230.18C2174.37 229.78 2174.49 229.46 2174.73 229.22C2175.01 228.94 2175.35 228.8 2175.75 228.8H2180.43V218.78C2180.43 218.38 2180.55 218.06 2180.79 217.82C2181.07 217.54 2181.41 217.4 2181.81 217.4H2184.63C2185.03 217.4 2185.35 217.54 2185.59 217.82C2185.87 218.06 2186.01 218.38 2186.01 218.78V228.8H2193.45C2193.85 228.8 2194.17 228.94 2194.41 229.22C2194.69 229.46 2194.83 229.78 2194.83 230.18V232.22C2194.83 232.62 2194.69 232.96 2194.41 233.24C2194.17 233.48 2193.85 233.6 2193.45 233.6H2186.01V249.02C2186.01 250.9 2186.33 252.38 2186.97 253.46C2187.61 254.54 2188.75 255.08 2190.39 255.08H2194.05C2194.45 255.08 2194.77 255.22 2195.01 255.5C2195.29 255.74 2195.43 256.06 2195.43 256.46V258.62C2195.43 259.02 2195.29 259.36 2195.01 259.64C2194.77 259.88 2194.45 260 2194.05 260H2189.91Z" fill="white"/>
</g>
<defs>
<radialGradient id="paint0_radial_208_710" cx="0" cy="0" r="1" gradientUnits="userSpaceOnUse" gradientTransform="translate(-426.809 -100.244) rotate(8.44293) scale(1952.97 738.843)">
<stop/>
<stop offset="1" stop-color="#7253DE"/>
</radialGradient>
<radialGradient id="paint1_radial_208_710" cx="0" cy="0" r="1" gradientUnits="userSpaceOnUse" gradientTransform="translate(2006.5 -0.5) rotate(90) scale(406.5 1472.5)">
<stop stop-color="#7E22B5"/>
<stop offset="1" stop-color="#7E22B5" stop-opacity="0"/>
</radialGradient>
<clipPath id="clip0_208_710">
<rect width="3010" height="373" fill="white"/>
</clipPath>
</defs>
</svg>
