<svg width="2203" height="381" viewBox="0 0 2203 381" fill="none" xmlns="http://www.w3.org/2000/svg">
<g clip-path="url(#clip0_208_710)" filter="url(#filter0_d_208_710)">
<rect width="2195" height="373" transform="translate(4)" fill="url(#paint0_radial_208_710)"/>
<ellipse cx="1927.5" cy="-0.5" rx="740.5" ry="406.5" fill="url(#paint1_radial_208_710)"/>
<path fill-rule="evenodd" clip-rule="evenodd" d="M816.146 113.772C816.146 108.918 812.224 104.997 807.371 104.997C802.517 104.997 798.596 108.918 798.596 113.772V122.547H785.434C778.167 122.547 772.271 128.442 772.271 135.709V148.871H895.12V135.709C895.12 128.442 889.224 122.547 881.957 122.547H868.795V113.772C868.795 108.918 864.874 104.997 860.02 104.997C855.166 104.997 851.245 108.918 851.245 113.772V122.547H816.146V113.772ZM895.12 157.646H772.271V229.534C814.207 215.038 857.542 196.036 895.12 172.947V157.646ZM895.12 205.11C870.101 220.208 842.936 233.453 812.835 245.395H881.957C889.224 245.395 895.12 239.499 895.12 232.233V205.11ZM789.821 179.583C789.821 177.17 791.795 175.196 794.208 175.196H820.533C822.946 175.196 824.921 177.17 824.921 179.583V205.908C824.921 208.321 822.946 210.295 820.533 210.295H794.208C791.795 210.295 789.821 208.321 789.821 205.908V179.583Z" fill="white"/>
<path fill-rule="evenodd" clip-rule="evenodd" d="M938.472 186C938.472 246.556 890.694 295 832.544 295C804.082 295 778.106 283.395 758.999 264.445C753.805 266.088 748.529 267.708 743.17 269.307C742.899 269.052 742.607 268.796 742.295 268.539C764.442 293.981 796.668 310 832.544 310C899.331 310 953.472 254.483 953.472 186C953.472 178.702 952.858 171.552 951.678 164.6C951.646 164.787 951.629 164.885 951.629 164.885C947.155 168.618 942.62 172.257 938.017 175.806C938.318 179.16 938.472 182.561 938.472 186ZM931.712 147.568C935.899 144.261 939.951 140.89 943.854 137.455C925.431 93.0977 882.529 62 832.544 62C765.756 62 711.615 117.517 711.615 186C711.615 206.967 716.69 226.718 725.649 244.033C730.503 242.69 735.419 241.278 740.382 239.797C731.628 223.959 726.615 205.615 726.615 186C726.615 125.444 774.393 77 832.544 77C877.679 77 916.566 106.186 931.712 147.568Z" fill="white"/>
<path d="M934.277 134.941C878.103 185.052 800.63 213.844 732.037 234.372C722.883 214.228 720.245 199.053 720.245 182.161C676.174 203.276 611.441 255.283 631.889 277.165C657.773 304.866 753.844 283.511 862.104 229.765C943.875 190.223 1042.54 111.139 1022.96 78.124C1012.38 60.293 963.136 69.9361 903.949 97.8242C914.313 108.068 926.983 118.05 934.277 134.941Z" stroke="white" stroke-width="15" stroke-linecap="round"/>
<path d="M1069.65 168C1069.14 168 1068.72 167.837 1068.39 167.51C1068.06 167.183 1067.9 166.763 1067.9 166.25V120.75C1067.9 120.237 1068.06 119.817 1068.39 119.49C1068.72 119.163 1069.14 119 1069.65 119H1089.25C1093.12 119 1096.48 119.607 1099.33 120.82C1102.22 121.987 1104.46 123.76 1106.05 126.14C1107.68 128.52 1108.5 131.53 1108.5 135.17C1108.5 138.763 1107.68 141.727 1106.05 144.06C1104.46 146.393 1102.22 148.12 1099.33 149.24C1096.48 150.36 1093.12 150.92 1089.25 150.92H1080.92V166.25C1080.92 166.763 1080.73 167.183 1080.36 167.51C1080.03 167.837 1079.61 168 1079.1 168H1069.65ZM1080.71 141.26H1088.9C1090.91 141.26 1092.49 140.747 1093.66 139.72C1094.87 138.693 1095.48 137.13 1095.48 135.03C1095.48 133.257 1094.97 131.763 1093.94 130.55C1092.91 129.337 1091.23 128.73 1088.9 128.73H1080.71V141.26ZM1116.18 168C1115.67 168 1115.25 167.837 1114.92 167.51C1114.6 167.183 1114.43 166.763 1114.43 166.25V120.05C1114.43 119.537 1114.6 119.117 1114.92 118.79C1115.25 118.463 1115.67 118.3 1116.18 118.3H1124.44C1124.96 118.3 1125.38 118.463 1125.7 118.79C1126.03 119.117 1126.19 119.537 1126.19 120.05V166.25C1126.19 166.763 1126.03 167.183 1125.7 167.51C1125.38 167.837 1124.96 168 1124.44 168H1116.18ZM1145.38 168.7C1142.86 168.7 1140.6 168.233 1138.59 167.3C1136.63 166.32 1135.07 165.013 1133.9 163.38C1132.74 161.747 1132.15 159.903 1132.15 157.85C1132.15 154.537 1133.51 151.923 1136.21 150.01C1138.92 148.05 1142.51 146.72 1146.99 146.02L1155.74 144.69V143.71C1155.74 142.03 1155.39 140.747 1154.69 139.86C1153.99 138.973 1152.71 138.53 1150.84 138.53C1149.54 138.53 1148.46 138.787 1147.62 139.3C1146.83 139.813 1146.2 140.513 1145.73 141.4C1145.31 142.007 1144.73 142.31 1143.98 142.31H1136.14C1135.63 142.31 1135.23 142.17 1134.95 141.89C1134.67 141.563 1134.56 141.19 1134.6 140.77C1134.6 139.93 1134.91 138.973 1135.51 137.9C1136.17 136.78 1137.15 135.683 1138.45 134.61C1139.76 133.537 1141.44 132.65 1143.49 131.95C1145.55 131.25 1148.02 130.9 1150.91 130.9C1153.95 130.9 1156.54 131.25 1158.68 131.95C1160.83 132.65 1162.56 133.63 1163.86 134.89C1165.22 136.15 1166.22 137.643 1166.87 139.37C1167.53 141.05 1167.85 142.917 1167.85 144.97V166.25C1167.85 166.763 1167.67 167.183 1167.29 167.51C1166.97 167.837 1166.57 168 1166.1 168H1157.98C1157.47 168 1157.05 167.837 1156.72 167.51C1156.4 167.183 1156.23 166.763 1156.23 166.25V163.8C1155.63 164.687 1154.81 165.503 1153.78 166.25C1152.76 166.997 1151.54 167.58 1150.14 168C1148.79 168.467 1147.2 168.7 1145.38 168.7ZM1148.67 160.72C1150.03 160.72 1151.24 160.44 1152.31 159.88C1153.43 159.273 1154.3 158.363 1154.9 157.15C1155.56 155.89 1155.88 154.327 1155.88 152.46V151.48L1149.93 152.53C1147.74 152.903 1146.13 153.487 1145.1 154.28C1144.12 155.027 1143.63 155.913 1143.63 156.94C1143.63 157.733 1143.87 158.41 1144.33 158.97C1144.8 159.53 1145.41 159.973 1146.15 160.3C1146.9 160.58 1147.74 160.72 1148.67 160.72ZM1177.5 168C1176.99 168 1176.57 167.837 1176.24 167.51C1175.92 167.183 1175.75 166.763 1175.75 166.25V133.35C1175.75 132.837 1175.92 132.417 1176.24 132.09C1176.57 131.763 1176.99 131.6 1177.5 131.6H1185.55C1186.07 131.6 1186.49 131.763 1186.81 132.09C1187.14 132.417 1187.3 132.837 1187.3 133.35V136.01C1188.52 134.563 1190.1 133.35 1192.06 132.37C1194.02 131.39 1196.33 130.9 1198.99 130.9C1201.7 130.9 1204.08 131.507 1206.13 132.72C1208.23 133.933 1209.87 135.73 1211.03 138.11C1212.25 140.443 1212.85 143.313 1212.85 146.72V166.25C1212.85 166.763 1212.67 167.183 1212.29 167.51C1211.97 167.837 1211.57 168 1211.1 168H1202.28C1201.82 168 1201.4 167.837 1201.02 167.51C1200.7 167.183 1200.53 166.763 1200.53 166.25V147.14C1200.53 144.947 1200 143.267 1198.92 142.1C1197.9 140.887 1196.36 140.28 1194.3 140.28C1192.39 140.28 1190.85 140.887 1189.68 142.1C1188.56 143.267 1188 144.947 1188 147.14V166.25C1188 166.763 1187.82 167.183 1187.44 167.51C1187.12 167.837 1186.72 168 1186.25 168H1177.5ZM1237.47 168.7C1231.96 168.7 1227.57 167.207 1224.31 164.22C1221.04 161.233 1219.34 156.8 1219.2 150.92C1219.2 150.593 1219.2 150.173 1219.2 149.66C1219.2 149.147 1219.2 148.75 1219.2 148.47C1219.34 144.783 1220.15 141.633 1221.65 139.02C1223.19 136.36 1225.29 134.353 1227.95 133C1230.65 131.6 1233.8 130.9 1237.4 130.9C1241.5 130.9 1244.89 131.717 1247.55 133.35C1250.25 134.983 1252.28 137.2 1253.64 140C1254.99 142.8 1255.67 145.997 1255.67 149.59V151.27C1255.67 151.783 1255.48 152.203 1255.11 152.53C1254.78 152.857 1254.38 153.02 1253.92 153.02H1231.52C1231.52 153.067 1231.52 153.137 1231.52 153.23C1231.52 153.323 1231.52 153.417 1231.52 153.51C1231.56 154.863 1231.8 156.1 1232.22 157.22C1232.64 158.34 1233.29 159.227 1234.18 159.88C1235.06 160.533 1236.14 160.86 1237.4 160.86C1238.33 160.86 1239.1 160.72 1239.71 160.44C1240.36 160.113 1240.9 159.763 1241.32 159.39C1241.74 158.97 1242.06 158.62 1242.3 158.34C1242.72 157.873 1243.04 157.593 1243.28 157.5C1243.56 157.36 1243.98 157.29 1244.54 157.29H1253.22C1253.68 157.29 1254.06 157.43 1254.34 157.71C1254.66 157.943 1254.8 158.293 1254.76 158.76C1254.71 159.553 1254.31 160.51 1253.57 161.63C1252.82 162.75 1251.72 163.87 1250.28 164.99C1248.88 166.063 1247.1 166.95 1244.96 167.65C1242.81 168.35 1240.31 168.7 1237.47 168.7ZM1231.52 146.09H1243.35V145.95C1243.35 144.457 1243.11 143.15 1242.65 142.03C1242.23 140.91 1241.55 140.047 1240.62 139.44C1239.73 138.833 1238.66 138.53 1237.4 138.53C1236.14 138.53 1235.06 138.833 1234.18 139.44C1233.34 140.047 1232.68 140.91 1232.22 142.03C1231.75 143.15 1231.52 144.457 1231.52 145.95V146.09ZM1280.78 168C1277.79 168 1275.2 167.533 1273.01 166.6C1270.86 165.62 1269.21 164.127 1268.04 162.12C1266.87 160.067 1266.29 157.43 1266.29 154.21V140.77H1260.83C1260.32 140.77 1259.87 140.607 1259.5 140.28C1259.17 139.953 1259.01 139.533 1259.01 139.02V133.35C1259.01 132.837 1259.17 132.417 1259.5 132.09C1259.87 131.763 1260.32 131.6 1260.83 131.6H1266.29V120.05C1266.29 119.537 1266.45 119.117 1266.78 118.79C1267.15 118.463 1267.57 118.3 1268.04 118.3H1276.16C1276.67 118.3 1277.09 118.463 1277.42 118.79C1277.75 119.117 1277.91 119.537 1277.91 120.05V131.6H1286.66C1287.17 131.6 1287.59 131.763 1287.92 132.09C1288.25 132.417 1288.41 132.837 1288.41 133.35V139.02C1288.41 139.533 1288.25 139.953 1287.92 140.28C1287.59 140.607 1287.17 140.77 1286.66 140.77H1277.91V153.23C1277.91 154.817 1278.21 156.077 1278.82 157.01C1279.43 157.943 1280.45 158.41 1281.9 158.41H1287.29C1287.8 158.41 1288.22 158.573 1288.55 158.9C1288.88 159.227 1289.04 159.647 1289.04 160.16V166.25C1289.04 166.763 1288.88 167.183 1288.55 167.51C1288.22 167.837 1287.8 168 1287.29 168H1280.78ZM1315.84 168.7C1311.4 168.7 1307.58 167.977 1304.36 166.53C1301.18 165.037 1298.71 162.89 1296.94 160.09C1295.21 157.243 1294.25 153.79 1294.07 149.73C1294.02 147.723 1294 145.6 1294 143.36C1294 141.073 1294.02 138.903 1294.07 136.85C1294.25 132.883 1295.23 129.523 1297.01 126.77C1298.78 124.017 1301.28 121.917 1304.5 120.47C1307.72 119.023 1311.5 118.3 1315.84 118.3C1319.34 118.3 1322.44 118.743 1325.15 119.63C1327.85 120.47 1330.12 121.613 1331.94 123.06C1333.8 124.507 1335.2 126.093 1336.14 127.82C1337.12 129.547 1337.63 131.25 1337.68 132.93C1337.72 133.35 1337.58 133.7 1337.26 133.98C1336.98 134.26 1336.63 134.4 1336.21 134.4H1325.99C1325.47 134.4 1325.08 134.33 1324.8 134.19C1324.56 134.003 1324.35 133.747 1324.17 133.42C1323.84 132.72 1323.35 131.997 1322.7 131.25C1322.09 130.457 1321.23 129.78 1320.11 129.22C1319.03 128.66 1317.61 128.38 1315.84 128.38C1313.18 128.38 1311.08 129.08 1309.54 130.48C1308.04 131.88 1307.23 134.12 1307.09 137.2C1306.95 141.213 1306.95 145.273 1307.09 149.38C1307.23 152.647 1308.09 155.003 1309.68 156.45C1311.26 157.897 1313.36 158.62 1315.98 158.62C1317.75 158.62 1319.31 158.317 1320.67 157.71C1322.07 157.103 1323.16 156.17 1323.96 154.91C1324.75 153.603 1325.15 151.947 1325.15 149.94V148.61H1318.57C1318.05 148.61 1317.61 148.447 1317.24 148.12C1316.91 147.747 1316.75 147.303 1316.75 146.79V141.61C1316.75 141.097 1316.91 140.677 1317.24 140.35C1317.61 139.977 1318.05 139.79 1318.57 139.79H1336.21C1336.72 139.79 1337.14 139.977 1337.47 140.35C1337.79 140.677 1337.96 141.097 1337.96 141.61V149.59C1337.96 153.603 1337.05 157.033 1335.23 159.88C1333.41 162.727 1330.82 164.92 1327.46 166.46C1324.14 167.953 1320.27 168.7 1315.84 168.7ZM1366.01 168.7C1361.71 168.7 1357.98 168 1354.81 166.6C1351.63 165.2 1349.16 163.1 1347.39 160.3C1345.61 157.453 1344.63 153.907 1344.45 149.66C1344.4 147.653 1344.38 145.647 1344.38 143.64C1344.38 141.633 1344.4 139.603 1344.45 137.55C1344.63 133.35 1345.61 129.827 1347.39 126.98C1349.21 124.087 1351.7 121.917 1354.88 120.47C1358.05 119.023 1361.76 118.3 1366.01 118.3C1370.21 118.3 1373.89 119.023 1377.07 120.47C1380.29 121.917 1382.81 124.087 1384.63 126.98C1386.45 129.827 1387.43 133.35 1387.57 137.55C1387.66 139.603 1387.71 141.633 1387.71 143.64C1387.71 145.647 1387.66 147.653 1387.57 149.66C1387.38 153.907 1386.4 157.453 1384.63 160.3C1382.85 163.1 1380.38 165.2 1377.21 166.6C1374.03 168 1370.3 168.7 1366.01 168.7ZM1366.01 158.62C1368.48 158.62 1370.49 157.873 1372.03 156.38C1373.61 154.887 1374.45 152.507 1374.55 149.24C1374.64 147.187 1374.69 145.25 1374.69 143.43C1374.69 141.61 1374.64 139.72 1374.55 137.76C1374.45 135.567 1374.03 133.793 1373.29 132.44C1372.59 131.04 1371.61 130.013 1370.35 129.36C1369.09 128.707 1367.64 128.38 1366.01 128.38C1364.42 128.38 1363 128.707 1361.74 129.36C1360.48 130.013 1359.47 131.04 1358.73 132.44C1357.98 133.793 1357.56 135.567 1357.47 137.76C1357.42 139.72 1357.4 141.61 1357.4 143.43C1357.4 145.25 1357.42 147.187 1357.47 149.24C1357.61 152.507 1358.45 154.887 1359.99 156.38C1361.53 157.873 1363.53 158.62 1366.01 158.62Z" fill="white"/>
<path d="M1069.6 260C1069.16 260 1068.82 259.88 1068.58 259.64C1068.34 259.36 1068.22 259.02 1068.22 258.62V219.44C1068.22 219 1068.34 218.66 1068.58 218.42C1068.82 218.14 1069.16 218 1069.6 218H1084.84C1087.8 218 1090.36 218.48 1092.52 219.44C1094.72 220.4 1096.42 221.84 1097.62 223.76C1098.82 225.64 1099.42 228 1099.42 230.84C1099.42 233.68 1098.82 236.04 1097.62 237.92C1096.42 239.8 1094.72 241.22 1092.52 242.18C1090.36 243.14 1087.8 243.62 1084.84 243.62H1074.22V258.62C1074.22 259.02 1074.08 259.36 1073.8 259.64C1073.56 259.88 1073.22 260 1072.78 260H1069.6ZM1074.16 238.58H1084.54C1087.5 238.58 1089.72 237.92 1091.2 236.6C1092.68 235.28 1093.42 233.36 1093.42 230.84C1093.42 228.36 1092.7 226.44 1091.26 225.08C1089.82 223.72 1087.58 223.04 1084.54 223.04H1074.16V238.58ZM1107.38 260C1106.98 260 1106.64 259.88 1106.36 259.64C1106.12 259.36 1106 259.02 1106 258.62V218.78C1106 218.38 1106.12 218.06 1106.36 217.82C1106.64 217.54 1106.98 217.4 1107.38 217.4H1110.2C1110.64 217.4 1110.98 217.54 1111.22 217.82C1111.46 218.06 1111.58 218.38 1111.58 218.78V258.62C1111.58 259.02 1111.46 259.36 1111.22 259.64C1110.98 259.88 1110.64 260 1110.2 260H1107.38ZM1129.23 260.6C1127.23 260.6 1125.41 260.2 1123.77 259.4C1122.13 258.6 1120.81 257.52 1119.81 256.16C1118.81 254.8 1118.31 253.26 1118.31 251.54C1118.31 248.78 1119.43 246.58 1121.67 244.94C1123.91 243.3 1126.83 242.22 1130.43 241.7L1139.37 240.44V238.7C1139.37 236.78 1138.81 235.28 1137.69 234.2C1136.61 233.12 1134.83 232.58 1132.35 232.58C1130.55 232.58 1129.09 232.94 1127.97 233.66C1126.89 234.38 1126.13 235.3 1125.69 236.42C1125.45 237.02 1125.03 237.32 1124.43 237.32H1121.73C1121.29 237.32 1120.95 237.2 1120.71 236.96C1120.51 236.68 1120.41 236.36 1120.41 236C1120.41 235.4 1120.63 234.66 1121.07 233.78C1121.55 232.9 1122.27 232.04 1123.23 231.2C1124.19 230.36 1125.41 229.66 1126.89 229.1C1128.41 228.5 1130.25 228.2 1132.41 228.2C1134.81 228.2 1136.83 228.52 1138.47 229.16C1140.11 229.76 1141.39 230.58 1142.31 231.62C1143.27 232.66 1143.95 233.84 1144.35 235.16C1144.79 236.48 1145.01 237.82 1145.01 239.18V258.62C1145.01 259.02 1144.87 259.36 1144.59 259.64C1144.35 259.88 1144.03 260 1143.63 260H1140.87C1140.43 260 1140.09 259.88 1139.85 259.64C1139.61 259.36 1139.49 259.02 1139.49 258.62V256.04C1138.97 256.76 1138.27 257.48 1137.39 258.2C1136.51 258.88 1135.41 259.46 1134.09 259.94C1132.77 260.38 1131.15 260.6 1129.23 260.6ZM1130.49 256.1C1132.13 256.1 1133.63 255.76 1134.99 255.08C1136.35 254.36 1137.41 253.26 1138.17 251.78C1138.97 250.3 1139.37 248.44 1139.37 246.2V244.52L1132.41 245.54C1129.57 245.94 1127.43 246.62 1125.99 247.58C1124.55 248.5 1123.83 249.68 1123.83 251.12C1123.83 252.24 1124.15 253.18 1124.79 253.94C1125.47 254.66 1126.31 255.2 1127.31 255.56C1128.35 255.92 1129.41 256.1 1130.49 256.1ZM1155.01 260C1154.61 260 1154.27 259.88 1153.99 259.64C1153.75 259.36 1153.63 259.02 1153.63 258.62V230.18C1153.63 229.78 1153.75 229.46 1153.99 229.22C1154.27 228.94 1154.61 228.8 1155.01 228.8H1157.83C1158.23 228.8 1158.55 228.94 1158.79 229.22C1159.07 229.46 1159.21 229.78 1159.21 230.18V232.82C1160.25 231.46 1161.55 230.36 1163.11 229.52C1164.71 228.64 1166.75 228.2 1169.23 228.2C1171.83 228.2 1174.03 228.78 1175.83 229.94C1177.67 231.06 1179.05 232.64 1179.97 234.68C1180.89 236.68 1181.35 239.02 1181.35 241.7V258.62C1181.35 259.02 1181.23 259.36 1180.99 259.64C1180.75 259.88 1180.43 260 1180.03 260H1177.03C1176.63 260 1176.29 259.88 1176.01 259.64C1175.77 259.36 1175.65 259.02 1175.65 258.62V242C1175.65 239.2 1174.97 237.02 1173.61 235.46C1172.25 233.86 1170.25 233.06 1167.61 233.06C1165.13 233.06 1163.13 233.86 1161.61 235.46C1160.13 237.02 1159.39 239.2 1159.39 242V258.62C1159.39 259.02 1159.25 259.36 1158.97 259.64C1158.73 259.88 1158.41 260 1158.01 260H1155.01ZM1191.4 260C1191 260 1190.66 259.88 1190.38 259.64C1190.14 259.36 1190.02 259.02 1190.02 258.62V230.18C1190.02 229.78 1190.14 229.46 1190.38 229.22C1190.66 228.94 1191 228.8 1191.4 228.8H1194.22C1194.62 228.8 1194.94 228.94 1195.18 229.22C1195.46 229.46 1195.6 229.78 1195.6 230.18V232.82C1196.64 231.46 1197.94 230.36 1199.5 229.52C1201.1 228.64 1203.14 228.2 1205.62 228.2C1208.22 228.2 1210.42 228.78 1212.22 229.94C1214.06 231.06 1215.44 232.64 1216.36 234.68C1217.28 236.68 1217.74 239.02 1217.74 241.7V258.62C1217.74 259.02 1217.62 259.36 1217.38 259.64C1217.14 259.88 1216.82 260 1216.42 260H1213.42C1213.02 260 1212.68 259.88 1212.4 259.64C1212.16 259.36 1212.04 259.02 1212.04 258.62V242C1212.04 239.2 1211.36 237.02 1210 235.46C1208.64 233.86 1206.64 233.06 1204 233.06C1201.52 233.06 1199.52 233.86 1198 235.46C1196.52 237.02 1195.78 239.2 1195.78 242V258.62C1195.78 259.02 1195.64 259.36 1195.36 259.64C1195.12 259.88 1194.8 260 1194.4 260H1191.4ZM1227.78 260C1227.38 260 1227.04 259.88 1226.76 259.64C1226.52 259.36 1226.4 259.02 1226.4 258.62V230.18C1226.4 229.78 1226.52 229.46 1226.76 229.22C1227.04 228.94 1227.38 228.8 1227.78 228.8H1230.66C1231.06 228.8 1231.38 228.94 1231.62 229.22C1231.86 229.46 1231.98 229.78 1231.98 230.18V258.62C1231.98 259.02 1231.86 259.36 1231.62 259.64C1231.38 259.88 1231.06 260 1230.66 260H1227.78ZM1227.3 222.98C1226.9 222.98 1226.56 222.86 1226.28 222.62C1226.04 222.34 1225.92 222 1225.92 221.6V218.36C1225.92 217.96 1226.04 217.64 1226.28 217.4C1226.56 217.12 1226.9 216.98 1227.3 216.98H1231.08C1231.48 216.98 1231.8 217.12 1232.04 217.4C1232.32 217.64 1232.46 217.96 1232.46 218.36V221.6C1232.46 222 1232.32 222.34 1232.04 222.62C1231.8 222.86 1231.48 222.98 1231.08 222.98H1227.3ZM1242.9 260C1242.5 260 1242.16 259.88 1241.88 259.64C1241.64 259.36 1241.52 259.02 1241.52 258.62V230.18C1241.52 229.78 1241.64 229.46 1241.88 229.22C1242.16 228.94 1242.5 228.8 1242.9 228.8H1245.72C1246.12 228.8 1246.44 228.94 1246.68 229.22C1246.96 229.46 1247.1 229.78 1247.1 230.18V232.82C1248.14 231.46 1249.44 230.36 1251 229.52C1252.6 228.64 1254.64 228.2 1257.12 228.2C1259.72 228.2 1261.92 228.78 1263.72 229.94C1265.56 231.06 1266.94 232.64 1267.86 234.68C1268.78 236.68 1269.24 239.02 1269.24 241.7V258.62C1269.24 259.02 1269.12 259.36 1268.88 259.64C1268.64 259.88 1268.32 260 1267.92 260H1264.92C1264.52 260 1264.18 259.88 1263.9 259.64C1263.66 259.36 1263.54 259.02 1263.54 258.62V242C1263.54 239.2 1262.86 237.02 1261.5 235.46C1260.14 233.86 1258.14 233.06 1255.5 233.06C1253.02 233.06 1251.02 233.86 1249.5 235.46C1248.02 237.02 1247.28 239.2 1247.28 242V258.62C1247.28 259.02 1247.14 259.36 1246.86 259.64C1246.62 259.88 1246.3 260 1245.9 260H1242.9ZM1290.69 273.2C1287.97 273.2 1285.73 272.84 1283.97 272.12C1282.25 271.4 1280.89 270.52 1279.89 269.48C1278.93 268.48 1278.23 267.46 1277.79 266.42C1277.39 265.42 1277.17 264.62 1277.13 264.02C1277.09 263.62 1277.21 263.28 1277.49 263C1277.81 262.72 1278.15 262.58 1278.51 262.58H1281.39C1281.75 262.58 1282.05 262.66 1282.29 262.82C1282.53 262.98 1282.73 263.32 1282.89 263.84C1283.13 264.44 1283.49 265.1 1283.97 265.82C1284.45 266.58 1285.19 267.22 1286.19 267.74C1287.19 268.3 1288.59 268.58 1290.39 268.58C1292.27 268.58 1293.85 268.32 1295.13 267.8C1296.41 267.32 1297.37 266.44 1298.01 265.16C1298.69 263.92 1299.03 262.2 1299.03 260V255.92C1298.07 257.16 1296.81 258.2 1295.25 259.04C1293.69 259.84 1291.73 260.24 1289.37 260.24C1287.13 260.24 1285.21 259.86 1283.61 259.1C1282.01 258.3 1280.69 257.24 1279.65 255.92C1278.65 254.56 1277.89 253.02 1277.37 251.3C1276.89 249.58 1276.61 247.78 1276.53 245.9C1276.49 244.78 1276.49 243.68 1276.53 242.6C1276.61 240.72 1276.89 238.92 1277.37 237.2C1277.89 235.48 1278.65 233.94 1279.65 232.58C1280.69 231.22 1282.01 230.16 1283.61 229.4C1285.21 228.6 1287.13 228.2 1289.37 228.2C1291.77 228.2 1293.75 228.66 1295.31 229.58C1296.91 230.46 1298.21 231.54 1299.21 232.82V230.24C1299.21 229.84 1299.33 229.5 1299.57 229.22C1299.85 228.94 1300.19 228.8 1300.59 228.8H1303.35C1303.75 228.8 1304.09 228.94 1304.37 229.22C1304.65 229.5 1304.79 229.84 1304.79 230.24V259.34C1304.79 262.02 1304.33 264.4 1303.41 266.48C1302.53 268.56 1301.05 270.2 1298.97 271.4C1296.93 272.6 1294.17 273.2 1290.69 273.2ZM1290.57 255.44C1292.57 255.44 1294.17 254.98 1295.37 254.06C1296.61 253.14 1297.51 251.98 1298.07 250.58C1298.67 249.18 1298.99 247.76 1299.03 246.32C1299.07 245.76 1299.09 245.08 1299.09 244.28C1299.09 243.44 1299.07 242.74 1299.03 242.18C1298.99 240.74 1298.67 239.32 1298.07 237.92C1297.51 236.52 1296.61 235.36 1295.37 234.44C1294.17 233.52 1292.57 233.06 1290.57 233.06C1288.57 233.06 1286.97 233.52 1285.77 234.44C1284.57 235.32 1283.71 236.5 1283.19 237.98C1282.67 239.42 1282.37 240.98 1282.29 242.66C1282.25 243.7 1282.25 244.76 1282.29 245.84C1282.37 247.52 1282.67 249.1 1283.19 250.58C1283.71 252.02 1284.57 253.2 1285.77 254.12C1286.97 255 1288.57 255.44 1290.57 255.44ZM1339.22 260.6C1336.98 260.6 1335.06 260.32 1333.46 259.76C1331.86 259.2 1330.56 258.52 1329.56 257.72C1328.56 256.92 1327.8 256.12 1327.28 255.32C1326.8 254.52 1326.54 253.88 1326.5 253.4C1326.46 252.96 1326.6 252.62 1326.92 252.38C1327.24 252.14 1327.56 252.02 1327.88 252.02H1330.52C1330.76 252.02 1330.94 252.06 1331.06 252.14C1331.22 252.18 1331.42 252.34 1331.66 252.62C1332.18 253.18 1332.76 253.74 1333.4 254.3C1334.04 254.86 1334.82 255.32 1335.74 255.68C1336.7 256.04 1337.88 256.22 1339.28 256.22C1341.32 256.22 1343 255.84 1344.32 255.08C1345.64 254.28 1346.3 253.12 1346.3 251.6C1346.3 250.6 1346.02 249.8 1345.46 249.2C1344.94 248.6 1343.98 248.06 1342.58 247.58C1341.22 247.1 1339.34 246.6 1336.94 246.08C1334.54 245.52 1332.64 244.84 1331.24 244.04C1329.84 243.2 1328.84 242.22 1328.24 241.1C1327.64 239.94 1327.34 238.64 1327.34 237.2C1327.34 235.72 1327.78 234.3 1328.66 232.94C1329.54 231.54 1330.82 230.4 1332.5 229.52C1334.22 228.64 1336.36 228.2 1338.92 228.2C1341 228.2 1342.78 228.46 1344.26 228.98C1345.74 229.5 1346.96 230.16 1347.92 230.96C1348.88 231.72 1349.6 232.48 1350.08 233.24C1350.56 234 1350.82 234.64 1350.86 235.16C1350.9 235.56 1350.78 235.9 1350.5 236.18C1350.22 236.42 1349.9 236.54 1349.54 236.54H1347.02C1346.74 236.54 1346.5 236.48 1346.3 236.36C1346.14 236.24 1345.98 236.1 1345.82 235.94C1345.42 235.42 1344.94 234.9 1344.38 234.38C1343.86 233.86 1343.16 233.44 1342.28 233.12C1341.44 232.76 1340.32 232.58 1338.92 232.58C1336.92 232.58 1335.42 233 1334.42 233.84C1333.42 234.68 1332.92 235.74 1332.92 237.02C1332.92 237.78 1333.14 238.46 1333.58 239.06C1334.02 239.66 1334.86 240.2 1336.1 240.68C1337.34 241.16 1339.18 241.68 1341.62 242.24C1344.26 242.76 1346.34 243.46 1347.86 244.34C1349.38 245.22 1350.46 246.24 1351.1 247.4C1351.74 248.56 1352.06 249.9 1352.06 251.42C1352.06 253.1 1351.56 254.64 1350.56 256.04C1349.6 257.44 1348.16 258.56 1346.24 259.4C1344.36 260.2 1342.02 260.6 1339.22 260.6ZM1370.64 260.6C1368.08 260.6 1365.9 260.04 1364.1 258.92C1362.34 257.76 1361 256.16 1360.08 254.12C1359.16 252.08 1358.7 249.74 1358.7 247.1V230.18C1358.7 229.78 1358.82 229.46 1359.06 229.22C1359.34 228.94 1359.68 228.8 1360.08 228.8H1363.08C1363.48 228.8 1363.8 228.94 1364.04 229.22C1364.32 229.46 1364.46 229.78 1364.46 230.18V246.8C1364.46 252.76 1367.06 255.74 1372.26 255.74C1374.74 255.74 1376.72 254.96 1378.2 253.4C1379.72 251.8 1380.48 249.6 1380.48 246.8V230.18C1380.48 229.78 1380.6 229.46 1380.84 229.22C1381.12 228.94 1381.46 228.8 1381.86 228.8H1384.8C1385.24 228.8 1385.58 228.94 1385.82 229.22C1386.06 229.46 1386.18 229.78 1386.18 230.18V258.62C1386.18 259.02 1386.06 259.36 1385.82 259.64C1385.58 259.88 1385.24 260 1384.8 260H1382.04C1381.64 260 1381.3 259.88 1381.02 259.64C1380.78 259.36 1380.66 259.02 1380.66 258.62V255.98C1379.58 257.38 1378.26 258.5 1376.7 259.34C1375.18 260.18 1373.16 260.6 1370.64 260.6ZM1407.7 260.6C1404.86 260.6 1402.4 260.06 1400.32 258.98C1398.28 257.86 1396.7 256.28 1395.58 254.24C1394.46 252.16 1393.86 249.68 1393.78 246.8C1393.74 246.2 1393.72 245.4 1393.72 244.4C1393.72 243.4 1393.74 242.6 1393.78 242C1393.86 239.12 1394.46 236.66 1395.58 234.62C1396.7 232.54 1398.28 230.96 1400.32 229.88C1402.4 228.76 1404.86 228.2 1407.7 228.2C1410.02 228.2 1412 228.52 1413.64 229.16C1415.32 229.8 1416.7 230.62 1417.78 231.62C1418.86 232.62 1419.66 233.7 1420.18 234.86C1420.74 236.02 1421.04 237.12 1421.08 238.16C1421.12 238.56 1421 238.88 1420.72 239.12C1420.44 239.36 1420.1 239.48 1419.7 239.48H1416.82C1416.42 239.48 1416.12 239.4 1415.92 239.24C1415.72 239.04 1415.52 238.72 1415.32 238.28C1414.6 236.32 1413.62 234.94 1412.38 234.14C1411.14 233.34 1409.6 232.94 1407.76 232.94C1405.36 232.94 1403.4 233.68 1401.88 235.16C1400.4 236.64 1399.6 239.02 1399.48 242.3C1399.44 243.74 1399.44 245.14 1399.48 246.5C1399.6 249.82 1400.4 252.22 1401.88 253.7C1403.4 255.14 1405.36 255.86 1407.76 255.86C1409.6 255.86 1411.14 255.46 1412.38 254.66C1413.62 253.86 1414.6 252.48 1415.32 250.52C1415.52 250.08 1415.72 249.78 1415.92 249.62C1416.12 249.42 1416.42 249.32 1416.82 249.32H1419.7C1420.1 249.32 1420.44 249.44 1420.72 249.68C1421 249.92 1421.12 250.24 1421.08 250.64C1421.04 251.48 1420.86 252.34 1420.54 253.22C1420.22 254.1 1419.7 255 1418.98 255.92C1418.3 256.8 1417.44 257.6 1416.4 258.32C1415.36 259 1414.1 259.56 1412.62 260C1411.18 260.4 1409.54 260.6 1407.7 260.6ZM1429.64 260C1429.24 260 1428.9 259.88 1428.62 259.64C1428.38 259.36 1428.26 259.02 1428.26 258.62V218.78C1428.26 218.38 1428.38 218.06 1428.62 217.82C1428.9 217.54 1429.24 217.4 1429.64 217.4H1432.46C1432.86 217.4 1433.18 217.54 1433.42 217.82C1433.7 218.06 1433.84 218.38 1433.84 218.78V239.66L1445.66 229.82C1446.14 229.42 1446.5 229.16 1446.74 229.04C1447.02 228.88 1447.46 228.8 1448.06 228.8H1451.24C1451.6 228.8 1451.9 228.92 1452.14 229.16C1452.38 229.4 1452.5 229.7 1452.5 230.06C1452.5 230.22 1452.44 230.4 1452.32 230.6C1452.24 230.8 1452.06 231 1451.78 231.2L1437.92 242.72L1453.28 257.66C1453.76 258.06 1454 258.42 1454 258.74C1454 259.1 1453.88 259.4 1453.64 259.64C1453.4 259.88 1453.1 260 1452.74 260H1449.62C1449.02 260 1448.58 259.94 1448.3 259.82C1448.02 259.66 1447.66 259.38 1447.22 258.98L1433.84 246.2V258.62C1433.84 259.02 1433.7 259.36 1433.42 259.64C1433.18 259.88 1432.86 260 1432.46 260H1429.64ZM1469.35 260.6C1467.11 260.6 1465.19 260.32 1463.59 259.76C1461.99 259.2 1460.69 258.52 1459.69 257.72C1458.69 256.92 1457.93 256.12 1457.41 255.32C1456.93 254.52 1456.67 253.88 1456.63 253.4C1456.59 252.96 1456.73 252.62 1457.05 252.38C1457.37 252.14 1457.69 252.02 1458.01 252.02H1460.65C1460.89 252.02 1461.07 252.06 1461.19 252.14C1461.35 252.18 1461.55 252.34 1461.79 252.62C1462.31 253.18 1462.89 253.74 1463.53 254.3C1464.17 254.86 1464.95 255.32 1465.87 255.68C1466.83 256.04 1468.01 256.22 1469.41 256.22C1471.45 256.22 1473.13 255.84 1474.45 255.08C1475.77 254.28 1476.43 253.12 1476.43 251.6C1476.43 250.6 1476.15 249.8 1475.59 249.2C1475.07 248.6 1474.11 248.06 1472.71 247.58C1471.35 247.1 1469.47 246.6 1467.07 246.08C1464.67 245.52 1462.77 244.84 1461.37 244.04C1459.97 243.2 1458.97 242.22 1458.37 241.1C1457.77 239.94 1457.47 238.64 1457.47 237.2C1457.47 235.72 1457.91 234.3 1458.79 232.94C1459.67 231.54 1460.95 230.4 1462.63 229.52C1464.35 228.64 1466.49 228.2 1469.05 228.2C1471.13 228.2 1472.91 228.46 1474.39 228.98C1475.87 229.5 1477.09 230.16 1478.05 230.96C1479.01 231.72 1479.73 232.48 1480.21 233.24C1480.69 234 1480.95 234.64 1480.99 235.16C1481.03 235.56 1480.91 235.9 1480.63 236.18C1480.35 236.42 1480.03 236.54 1479.67 236.54H1477.15C1476.87 236.54 1476.63 236.48 1476.43 236.36C1476.27 236.24 1476.11 236.1 1475.95 235.94C1475.55 235.42 1475.07 234.9 1474.51 234.38C1473.99 233.86 1473.29 233.44 1472.41 233.12C1471.57 232.76 1470.45 232.58 1469.05 232.58C1467.05 232.58 1465.55 233 1464.55 233.84C1463.55 234.68 1463.05 235.74 1463.05 237.02C1463.05 237.78 1463.27 238.46 1463.71 239.06C1464.15 239.66 1464.99 240.2 1466.23 240.68C1467.47 241.16 1469.31 241.68 1471.75 242.24C1474.39 242.76 1476.47 243.46 1477.99 244.34C1479.51 245.22 1480.59 246.24 1481.23 247.4C1481.87 248.56 1482.19 249.9 1482.19 251.42C1482.19 253.1 1481.69 254.64 1480.69 256.04C1479.73 257.44 1478.29 258.56 1476.37 259.4C1474.49 260.2 1472.15 260.6 1469.35 260.6ZM1488.72 264.5C1488.4 264.5 1488.14 264.38 1487.94 264.14C1487.78 263.9 1487.72 263.6 1487.76 263.24L1489.14 254.66C1489.22 254.18 1489.38 253.78 1489.62 253.46C1489.9 253.1 1490.3 252.92 1490.82 252.92H1494.84C1495.12 252.92 1495.34 253.02 1495.5 253.22C1495.7 253.42 1495.8 253.66 1495.8 253.94C1495.8 254.26 1495.72 254.58 1495.56 254.9L1492.44 263.12C1492.28 263.52 1492.06 263.84 1491.78 264.08C1491.54 264.36 1491.18 264.5 1490.7 264.5H1488.72ZM1525.71 260C1525.19 260 1524.77 259.86 1524.45 259.58C1524.17 259.3 1523.97 258.9 1523.85 258.38L1516.11 219.86C1516.07 219.7 1516.05 219.56 1516.05 219.44C1516.05 219.32 1516.05 219.24 1516.05 219.2C1516.05 218.88 1516.17 218.6 1516.41 218.36C1516.65 218.12 1516.93 218 1517.25 218H1520.37C1521.21 218 1521.69 218.34 1521.81 219.02L1527.93 249.98L1534.41 228.74C1534.53 228.38 1534.73 228.06 1535.01 227.78C1535.33 227.46 1535.77 227.3 1536.33 227.3H1538.55C1539.15 227.3 1539.59 227.46 1539.87 227.78C1540.15 228.06 1540.33 228.38 1540.41 228.74L1546.95 249.98L1553.01 219.02C1553.13 218.34 1553.63 218 1554.51 218H1557.63C1557.95 218 1558.23 218.12 1558.47 218.36C1558.71 218.6 1558.83 218.88 1558.83 219.2C1558.83 219.24 1558.81 219.32 1558.77 219.44C1558.77 219.56 1558.77 219.7 1558.77 219.86L1551.03 258.38C1550.91 258.9 1550.69 259.3 1550.37 259.58C1550.09 259.86 1549.69 260 1549.17 260H1546.83C1546.27 260 1545.83 259.86 1545.51 259.58C1545.19 259.3 1544.97 258.94 1544.85 258.5L1537.41 235.64L1530.03 258.5C1529.87 258.94 1529.63 259.3 1529.31 259.58C1529.03 259.86 1528.61 260 1528.05 260H1525.71ZM1577.03 260.6C1572.91 260.6 1569.63 259.34 1567.19 256.82C1564.75 254.26 1563.41 250.78 1563.17 246.38C1563.13 245.86 1563.11 245.2 1563.11 244.4C1563.11 243.56 1563.13 242.88 1563.17 242.36C1563.33 239.52 1563.99 237.04 1565.15 234.92C1566.31 232.76 1567.89 231.1 1569.89 229.94C1571.93 228.78 1574.31 228.2 1577.03 228.2C1580.07 228.2 1582.61 228.84 1584.65 230.12C1586.73 231.4 1588.31 233.22 1589.39 235.58C1590.47 237.94 1591.01 240.7 1591.01 243.86V244.88C1591.01 245.32 1590.87 245.66 1590.59 245.9C1590.35 246.14 1590.03 246.26 1589.63 246.26H1568.87C1568.87 246.3 1568.87 246.38 1568.87 246.5C1568.87 246.62 1568.87 246.72 1568.87 246.8C1568.95 248.44 1569.31 249.98 1569.95 251.42C1570.59 252.82 1571.51 253.96 1572.71 254.84C1573.91 255.72 1575.35 256.16 1577.03 256.16C1578.47 256.16 1579.67 255.94 1580.63 255.5C1581.59 255.06 1582.37 254.58 1582.97 254.06C1583.57 253.5 1583.97 253.08 1584.17 252.8C1584.53 252.28 1584.81 251.98 1585.01 251.9C1585.21 251.78 1585.53 251.72 1585.97 251.72H1588.85C1589.25 251.72 1589.57 251.84 1589.81 252.08C1590.09 252.28 1590.21 252.58 1590.17 252.98C1590.13 253.58 1589.81 254.32 1589.21 255.2C1588.61 256.04 1587.75 256.88 1586.63 257.72C1585.51 258.56 1584.15 259.26 1582.55 259.82C1580.95 260.34 1579.11 260.6 1577.03 260.6ZM1568.87 242.12H1585.31V241.94C1585.31 240.14 1584.97 238.54 1584.29 237.14C1583.65 235.74 1582.71 234.64 1581.47 233.84C1580.23 233 1578.75 232.58 1577.03 232.58C1575.31 232.58 1573.83 233 1572.59 233.84C1571.39 234.64 1570.47 235.74 1569.83 237.14C1569.19 238.54 1568.87 240.14 1568.87 241.94V242.12ZM1616.28 260C1615.88 260 1615.54 259.88 1615.26 259.64C1615.02 259.36 1614.9 259.02 1614.9 258.62V233.6H1609.8C1609.4 233.6 1609.06 233.48 1608.78 233.24C1608.54 232.96 1608.42 232.62 1608.42 232.22V230.18C1608.42 229.78 1608.54 229.46 1608.78 229.22C1609.06 228.94 1609.4 228.8 1609.8 228.8H1614.9V225.8C1614.9 223.76 1615.24 221.98 1615.92 220.46C1616.6 218.9 1617.68 217.7 1619.16 216.86C1620.68 216.02 1622.7 215.6 1625.22 215.6H1634.46C1634.86 215.6 1635.18 215.74 1635.42 216.02C1635.7 216.26 1635.84 216.58 1635.84 216.98V219.02C1635.84 219.42 1635.7 219.76 1635.42 220.04C1635.18 220.28 1634.86 220.4 1634.46 220.4H1625.34C1623.46 220.4 1622.18 220.9 1621.5 221.9C1620.82 222.86 1620.48 224.26 1620.48 226.1V228.8H1634.46C1634.86 228.8 1635.18 228.94 1635.42 229.22C1635.7 229.46 1635.84 229.78 1635.84 230.18V258.62C1635.84 259.02 1635.7 259.36 1635.42 259.64C1635.18 259.88 1634.86 260 1634.46 260H1631.7C1631.26 260 1630.92 259.88 1630.68 259.64C1630.44 259.36 1630.32 259.02 1630.32 258.62V233.6H1620.48V258.62C1620.48 259.02 1620.34 259.36 1620.06 259.64C1619.82 259.88 1619.5 260 1619.1 260H1616.28ZM1643.27 260C1642.95 260 1642.65 259.88 1642.37 259.64C1642.13 259.4 1642.01 259.1 1642.01 258.74C1642.01 258.62 1642.03 258.48 1642.07 258.32C1642.15 258.12 1642.27 257.9 1642.43 257.66L1652.87 244.04L1643.09 231.14C1642.93 230.9 1642.81 230.7 1642.73 230.54C1642.69 230.38 1642.67 230.22 1642.67 230.06C1642.67 229.7 1642.79 229.4 1643.03 229.16C1643.27 228.92 1643.57 228.8 1643.93 228.8H1646.99C1647.43 228.8 1647.75 228.92 1647.95 229.16C1648.19 229.36 1648.39 229.56 1648.55 229.76L1656.53 240.14L1664.51 229.82C1664.67 229.62 1664.85 229.4 1665.05 229.16C1665.29 228.92 1665.63 228.8 1666.07 228.8H1669.01C1669.37 228.8 1669.67 228.92 1669.91 229.16C1670.15 229.4 1670.27 229.7 1670.27 230.06C1670.27 230.22 1670.23 230.38 1670.15 230.54C1670.11 230.7 1670.01 230.9 1669.85 231.14L1659.95 244.16L1670.39 257.66C1670.55 257.9 1670.65 258.1 1670.69 258.26C1670.77 258.42 1670.81 258.58 1670.81 258.74C1670.81 259.1 1670.69 259.4 1670.45 259.64C1670.21 259.88 1669.91 260 1669.55 260H1666.37C1665.97 260 1665.65 259.9 1665.41 259.7C1665.17 259.5 1664.97 259.3 1664.81 259.1L1656.35 248.12L1647.89 259.1C1647.73 259.26 1647.53 259.46 1647.29 259.7C1647.09 259.9 1646.77 260 1646.33 260H1643.27ZM1688.65 260.6C1684.53 260.6 1681.25 259.34 1678.81 256.82C1676.37 254.26 1675.03 250.78 1674.79 246.38C1674.75 245.86 1674.73 245.2 1674.73 244.4C1674.73 243.56 1674.75 242.88 1674.79 242.36C1674.95 239.52 1675.61 237.04 1676.77 234.92C1677.93 232.76 1679.51 231.1 1681.51 229.94C1683.55 228.78 1685.93 228.2 1688.65 228.2C1691.69 228.2 1694.23 228.84 1696.27 230.12C1698.35 231.4 1699.93 233.22 1701.01 235.58C1702.09 237.94 1702.63 240.7 1702.63 243.86V244.88C1702.63 245.32 1702.49 245.66 1702.21 245.9C1701.97 246.14 1701.65 246.26 1701.25 246.26H1680.49C1680.49 246.3 1680.49 246.38 1680.49 246.5C1680.49 246.62 1680.49 246.72 1680.49 246.8C1680.57 248.44 1680.93 249.98 1681.57 251.42C1682.21 252.82 1683.13 253.96 1684.33 254.84C1685.53 255.72 1686.97 256.16 1688.65 256.16C1690.09 256.16 1691.29 255.94 1692.25 255.5C1693.21 255.06 1693.99 254.58 1694.59 254.06C1695.19 253.5 1695.59 253.08 1695.79 252.8C1696.15 252.28 1696.43 251.98 1696.63 251.9C1696.83 251.78 1697.15 251.72 1697.59 251.72H1700.47C1700.87 251.72 1701.19 251.84 1701.43 252.08C1701.71 252.28 1701.83 252.58 1701.79 252.98C1701.75 253.58 1701.43 254.32 1700.83 255.2C1700.23 256.04 1699.37 256.88 1698.25 257.72C1697.13 258.56 1695.77 259.26 1694.17 259.82C1692.57 260.34 1690.73 260.6 1688.65 260.6ZM1680.49 242.12H1696.93V241.94C1696.93 240.14 1696.59 238.54 1695.91 237.14C1695.27 235.74 1694.33 234.64 1693.09 233.84C1691.85 233 1690.37 232.58 1688.65 232.58C1686.93 232.58 1685.45 233 1684.21 233.84C1683.01 234.64 1682.09 235.74 1681.45 237.14C1680.81 238.54 1680.49 240.14 1680.49 241.94V242.12ZM1721.2 260.6C1719 260.6 1717.1 260.22 1715.5 259.46C1713.9 258.66 1712.58 257.6 1711.54 256.28C1710.54 254.92 1709.78 253.38 1709.26 251.66C1708.78 249.94 1708.5 248.12 1708.42 246.2C1708.38 245.56 1708.36 244.96 1708.36 244.4C1708.36 243.84 1708.38 243.24 1708.42 242.6C1708.5 240.72 1708.78 238.92 1709.26 237.2C1709.78 235.48 1710.54 233.94 1711.54 232.58C1712.58 231.22 1713.9 230.16 1715.5 229.4C1717.1 228.6 1719 228.2 1721.2 228.2C1723.56 228.2 1725.52 228.62 1727.08 229.46C1728.64 230.3 1729.92 231.34 1730.92 232.58V218.78C1730.92 218.38 1731.04 218.06 1731.28 217.82C1731.56 217.54 1731.9 217.4 1732.3 217.4H1735.18C1735.58 217.4 1735.9 217.54 1736.14 217.82C1736.42 218.06 1736.56 218.38 1736.56 218.78V258.62C1736.56 259.02 1736.42 259.36 1736.14 259.64C1735.9 259.88 1735.58 260 1735.18 260H1732.48C1732.04 260 1731.7 259.88 1731.46 259.64C1731.22 259.36 1731.1 259.02 1731.1 258.62V256.1C1730.1 257.38 1728.8 258.46 1727.2 259.34C1725.6 260.18 1723.6 260.6 1721.2 260.6ZM1722.46 255.74C1724.46 255.74 1726.06 255.28 1727.26 254.36C1728.46 253.44 1729.36 252.28 1729.96 250.88C1730.56 249.44 1730.88 247.98 1730.92 246.5C1730.96 245.86 1730.98 245.1 1730.98 244.22C1730.98 243.3 1730.96 242.52 1730.92 241.88C1730.88 240.48 1730.54 239.1 1729.9 237.74C1729.3 236.38 1728.38 235.26 1727.14 234.38C1725.94 233.5 1724.38 233.06 1722.46 233.06C1720.42 233.06 1718.8 233.52 1717.6 234.44C1716.4 235.32 1715.54 236.5 1715.02 237.98C1714.5 239.42 1714.2 240.98 1714.12 242.66C1714.08 243.82 1714.08 244.98 1714.12 246.14C1714.2 247.82 1714.5 249.4 1715.02 250.88C1715.54 252.32 1716.4 253.5 1717.6 254.42C1718.8 255.3 1720.42 255.74 1722.46 255.74ZM1761.57 260C1761.17 260 1760.83 259.88 1760.55 259.64C1760.31 259.36 1760.19 259.02 1760.19 258.62V230.18C1760.19 229.78 1760.31 229.46 1760.55 229.22C1760.83 228.94 1761.17 228.8 1761.57 228.8H1764.45C1764.85 228.8 1765.17 228.94 1765.41 229.22C1765.65 229.46 1765.77 229.78 1765.77 230.18V258.62C1765.77 259.02 1765.65 259.36 1765.41 259.64C1765.17 259.88 1764.85 260 1764.45 260H1761.57ZM1761.09 222.98C1760.69 222.98 1760.35 222.86 1760.07 222.62C1759.83 222.34 1759.71 222 1759.71 221.6V218.36C1759.71 217.96 1759.83 217.64 1760.07 217.4C1760.35 217.12 1760.69 216.98 1761.09 216.98H1764.87C1765.27 216.98 1765.59 217.12 1765.83 217.4C1766.11 217.64 1766.25 217.96 1766.25 218.36V221.6C1766.25 222 1766.11 222.34 1765.83 222.62C1765.59 222.86 1765.27 222.98 1764.87 222.98H1761.09ZM1786.91 260C1784.67 260 1782.85 259.58 1781.45 258.74C1780.05 257.86 1779.03 256.64 1778.39 255.08C1777.75 253.48 1777.43 251.6 1777.43 249.44V233.6H1772.75C1772.35 233.6 1772.01 233.48 1771.73 233.24C1771.49 232.96 1771.37 232.62 1771.37 232.22V230.18C1771.37 229.78 1771.49 229.46 1771.73 229.22C1772.01 228.94 1772.35 228.8 1772.75 228.8H1777.43V218.78C1777.43 218.38 1777.55 218.06 1777.79 217.82C1778.07 217.54 1778.41 217.4 1778.81 217.4H1781.63C1782.03 217.4 1782.35 217.54 1782.59 217.82C1782.87 218.06 1783.01 218.38 1783.01 218.78V228.8H1790.45C1790.85 228.8 1791.17 228.94 1791.41 229.22C1791.69 229.46 1791.83 229.78 1791.83 230.18V232.22C1791.83 232.62 1791.69 232.96 1791.41 233.24C1791.17 233.48 1790.85 233.6 1790.45 233.6H1783.01V249.02C1783.01 250.9 1783.33 252.38 1783.97 253.46C1784.61 254.54 1785.75 255.08 1787.39 255.08H1791.05C1791.45 255.08 1791.77 255.22 1792.01 255.5C1792.29 255.74 1792.43 256.06 1792.43 256.46V258.62C1792.43 259.02 1792.29 259.36 1792.01 259.64C1791.77 259.88 1791.45 260 1791.05 260H1786.91Z" fill="white"/>
</g>
<defs>
<filter id="filter0_d_208_710" x="0" y="0" width="2203" height="381" filterUnits="userSpaceOnUse" color-interpolation-filters="sRGB">
<feFlood flood-opacity="0" result="BackgroundImageFix"/>
<feColorMatrix in="SourceAlpha" type="matrix" values="0 0 0 0 0 0 0 0 0 0 0 0 0 0 0 0 0 0 127 0" result="hardAlpha"/>
<feOffset dy="4"/>
<feGaussianBlur stdDeviation="2"/>
<feComposite in2="hardAlpha" operator="out"/>
<feColorMatrix type="matrix" values="0 0 0 0 0 0 0 0 0 0 0 0 0 0 0 0 0 0 0.25 0"/>
<feBlend mode="normal" in2="BackgroundImageFix" result="effect1_dropShadow_208_710"/>
<feBlend mode="normal" in="SourceGraphic" in2="effect1_dropShadow_208_710" result="shape"/>
</filter>
<radialGradient id="paint0_radial_208_710" cx="0" cy="0" r="1" gradientUnits="userSpaceOnUse" gradientTransform="translate(-311.244 -100.244) rotate(11.5051) scale(1437.63 731.93)">
<stop/>
<stop offset="1" stop-color="#7253DE"/>
</radialGradient>
<radialGradient id="paint1_radial_208_710" cx="0" cy="0" r="1" gradientUnits="userSpaceOnUse" gradientTransform="translate(1927.5 -0.5) rotate(90) scale(406.5 740.5)">
<stop stop-color="#7E22B5"/>
<stop offset="1" stop-color="#7E22B5" stop-opacity="0"/>
</radialGradient>
<clipPath id="clip0_208_710">
<rect width="2195" height="373" fill="white" transform="translate(4)"/>
</clipPath>
</defs>
</svg>
